<svg width="218" height="24" viewBox="0 0 218 24" fill="none" xmlns="http://www.w3.org/2000/svg">
<path d="M0.118977 0.250774C0.178466 0.392517 2.40334 5.48432 5.05652 11.5683C10.6722 24.4559 10.47 23.998 10.589 23.998C10.6365 23.998 12.4569 19.9093 14.6342 14.9265C16.8115 9.93283 19.1077 4.64477 19.7502 3.17284C20.3927 1.7009 20.9519 0.392517 20.9994 0.250774L21.0708 0.0109043H19.4765C18.3106 0.0109043 17.8466 0.0545158 17.7514 0.152645C17.68 0.228968 17.4658 0.686903 17.2755 1.15574C17.0732 1.63548 16.2166 3.69619 15.348 5.73509C14.4795 7.77399 13.1946 10.8378 12.4926 12.5496C11.7906 14.2614 11.0649 15.9514 10.8864 16.3112L10.5652 16.9654L10.3272 16.4748C10.0655 15.9296 9.00656 13.4219 6.17491 6.66187C5.12791 4.17593 4.08091 1.66819 3.83106 1.10122L3.37895 0.0654202L1.68947 0.032711L0 0L0.118977 0.250774Z" fill="#1BAF9A"/>
<path d="M37.7794 0.44124C37.7437 0.517563 37.7318 5.60937 37.7437 11.7588L37.7794 22.9346L39.3023 22.9673L40.8133 23L40.7895 11.6825L40.7538 0.364918L39.2904 0.332209C38.1958 0.310402 37.8151 0.343111 37.7794 0.44124Z" fill="#1BAF9A"/>
<path d="M57.6305 0.452143C57.6067 0.528465 57.5948 1.08453 57.6067 1.68421L57.6424 2.76363L60.7358 2.81814L63.8292 2.87266L63.8887 12.9036L63.9482 22.9346L65.3997 22.9673L66.8631 23L66.8869 12.9363L66.9226 2.87266L69.9922 2.83995L73.0618 2.81814L73.0261 1.58608L72.9904 0.364918L65.3402 0.332209C59.0701 0.310402 57.69 0.332209 57.6305 0.452143Z" fill="#1BAF9A"/>
<path d="M90.0191 0.495756C89.924 0.713821 89.924 22.5966 90.0191 22.8255C90.0905 22.9782 90.7925 23 96.8008 23H103.523L103.487 21.7679L103.452 20.5468L98.2405 20.5141L93.0412 20.4923L93.065 16.2073L93.1006 11.9332L98.0858 11.9005C101.905 11.8787 103.107 11.846 103.178 11.737C103.345 11.4971 103.285 9.63265 103.119 9.49091C103 9.41459 101.429 9.36007 98.0263 9.34917L93.1006 9.31646V6.10001V2.88356L98.2761 2.82904L103.452 2.77453V1.57517V0.37582L96.777 0.343111C90.7568 0.321304 90.0905 0.332209 90.0191 0.495756Z" fill="#1BAF9A"/>
<path d="M121.783 0.495754C121.688 0.71382 121.688 22.6075 121.783 22.8255C121.855 22.9782 122.557 23 128.565 23H135.275V21.7461V20.4923H130.04H124.805L124.829 16.2073L124.865 11.9332L129.85 11.9005C133.669 11.8787 134.871 11.846 134.942 11.737C135.109 11.4971 135.049 9.63265 134.883 9.49091C134.764 9.41459 133.193 9.36007 129.79 9.34917L124.865 9.31646V6.10001V2.88356L130.076 2.85085L135.275 2.82904V1.57517V0.321302H128.565C122.557 0.321302 121.855 0.343109 121.783 0.495754Z" fill="#1BAF9A"/>
<path d="M153.049 0.477591C153.025 0.553911 153.013 1.10998 153.025 1.70965L153.06 2.78907L159.093 2.84359L165.125 2.8981L164.161 4.26101C163.328 5.42765 159.461 10.9992 156.475 15.3278C155.975 16.0474 154.619 17.9991 153.453 19.6673C152.287 21.3245 151.3 22.7638 151.264 22.851C151.193 22.9927 152.275 23.0145 160.449 22.9927L169.717 22.96L169.753 21.8261C169.777 20.9865 169.741 20.6594 169.634 20.594C169.551 20.5504 166.517 20.5068 162.888 20.5068C157.129 20.5068 156.32 20.485 156.38 20.3433C156.416 20.256 157.534 18.6205 158.867 16.7234C160.199 14.8153 162.138 12.0241 163.173 10.5304C165.315 7.43384 168.908 2.25481 169.634 1.21901C169.908 0.837397 170.098 0.488493 170.062 0.433977C170.027 0.379461 166.243 0.335848 161.555 0.335848C154.667 0.335848 153.096 0.357655 153.049 0.477591Z" fill="#1BAF9A"/>
<path d="M184.587 0.441238C184.504 0.561174 184.813 1.05182 188.037 5.93646C189.227 7.73549 190.809 10.1342 191.559 11.279L192.915 13.3507L192.88 16.9923C192.856 18.9985 192.868 21.1683 192.915 21.8225L192.999 23H194.414H195.818L195.854 18.1154L195.89 13.2416L197.151 11.3881C197.853 10.3632 199.507 7.88814 200.839 5.88194C202.16 3.87575 203.504 1.83685 203.825 1.36801C204.135 0.888271 204.397 0.463045 204.397 0.408529C204.397 0.354013 203.635 0.332207 202.707 0.343109L201.006 0.375818L200.494 1.08453C200.22 1.47705 198.817 3.58137 197.389 5.77291C195.949 7.96446 194.688 9.86162 194.557 10.0034L194.343 10.2432L192.856 7.97536C192.047 6.7324 190.631 4.56266 189.727 3.15614C188.811 1.74962 187.99 0.528463 187.883 0.452141C187.645 0.288593 184.694 0.266787 184.587 0.441238Z" fill="#1BAF9A"/>
<path d="M211.36 14.2883C211.324 14.3646 211.289 15.0625 211.277 15.8475L211.241 17.2649L209.457 17.3194L207.672 17.3739V18.5733V19.7726L209.457 19.8272L211.241 19.8817L211.277 21.4408L211.313 23L212.824 22.9673L214.335 22.9346L214.37 21.3754L214.406 19.8272H216.179H217.951L217.987 18.7586C218.011 18.1808 217.999 17.6138 217.975 17.5157C217.94 17.3521 217.737 17.3194 216.191 17.2976L214.454 17.2649L214.394 15.7385L214.335 14.212L212.871 14.1793C211.777 14.1575 211.396 14.1902 211.36 14.2883Z" fill="#1BAF9A"/>
</svg>
