<svg width="30" height="24" viewBox="0 0 30 24" fill="none" xmlns="http://www.w3.org/2000/svg">
<path d="M0.118977 0.250774C0.178466 0.392517 2.40334 5.48432 5.05652 11.5683C10.6722 24.4559 10.47 23.998 10.589 23.998C10.6365 23.998 12.4569 19.9093 14.6342 14.9265C16.8115 9.93283 19.1077 4.64477 19.7502 3.17284C20.3927 1.7009 20.9519 0.392517 20.9994 0.250774L21.0708 0.0109043H19.4765C18.3106 0.0109043 17.8466 0.0545158 17.7514 0.152645C17.68 0.228968 17.4658 0.686903 17.2755 1.15574C17.0732 1.63548 16.2166 3.69619 15.348 5.73509C14.4795 7.77399 13.1946 10.8378 12.4926 12.5496C11.7906 14.2614 11.0649 15.9514 10.8864 16.3112L10.5652 16.9654L10.3272 16.4748C10.0655 15.9296 9.00656 13.4219 6.17491 6.66187C5.12791 4.17593 4.08091 1.66819 3.83106 1.10122L3.37895 0.0654202L1.68947 0.032711L0 0L0.118977 0.250774Z" fill="#1BAF9A"/>
<path d="M23.5711 15.1178C23.5365 15.1956 23.5019 15.907 23.4904 16.7074L23.4559 18.1526L21.7279 18.2082L20 18.2638V19.4866V20.7095L21.7279 20.765L23.4559 20.8206L23.4904 22.4103L23.525 24L24.988 23.9666L26.4509 23.9333L26.4855 22.3436L26.5201 20.765H28.2365H29.9529L29.9874 19.6756C30.0105 19.0864 29.999 18.5083 29.9759 18.4083C29.9414 18.2415 29.7455 18.2082 28.248 18.186L26.5661 18.1526L26.5085 16.5963L26.4509 15.0399L25.034 15.0066C23.9742 14.9844 23.6056 15.0177 23.5711 15.1178Z" fill="#1BAF9A"/>
</svg>
