<svg width="36" height="33" viewBox="0 0 36 33" fill="none" xmlns="http://www.w3.org/2000/svg">
<path d="M16.9964 0.677778H33.8947C34.6537 0.677778 35.269 1.29484 35.269 2.05611V9.19604C35.269 9.95731 34.6537 10.5744 33.8947 10.5744H21.5441L19.4463 12.1025L19.0389 10.5744H16.9964C16.2374 10.5744 15.6221 9.95731 15.6221 9.19604V2.05611C15.6221 1.29484 16.2374 0.677778 16.9964 0.677778Z" stroke="#104F54" stroke-width="1.35" stroke-miterlimit="10" stroke-linecap="round" stroke-linejoin="round"/>
<path d="M12.3679 10.9323C12.3679 9.33287 11.0751 8.03631 9.48029 8.03631H3.56246C1.96764 8.03631 0.674805 9.33287 0.674805 10.9323V14.5557H12.3679V10.9323Z" stroke="#104F54" stroke-width="1.35" stroke-miterlimit="10" stroke-linecap="round" stroke-linejoin="round"/>
<path d="M10.1922 4.35564C10.1922 6.38836 8.54917 8.03613 6.52242 8.03613C4.4956 8.03613 2.85254 6.38836 2.85254 4.35564C2.85254 2.32291 4.4956 0.67514 6.52242 0.67514C8.54917 0.67514 10.1922 2.32291 10.1922 4.35564Z" stroke="#104F54" stroke-width="1.35" stroke-miterlimit="10" stroke-linecap="round" stroke-linejoin="round"/>
<path d="M19.1982 4.14551H31.6929" stroke="#104F54" stroke-width="1.35" stroke-miterlimit="10" stroke-linecap="round" stroke-linejoin="round"/>
<path d="M19.1982 7.09473H31.6929" stroke="#104F54" stroke-width="1.35" stroke-miterlimit="10" stroke-linecap="round" stroke-linejoin="round"/>
<path d="M18.9474 17.8731H2.04913C1.29011 17.8731 0.674805 18.4902 0.674805 19.2514V26.3914C0.674805 27.1526 1.29011 27.7697 2.04913 27.7697H14.3998L16.4975 29.2979L16.9049 27.7697H18.9474C19.7064 27.7697 20.3217 27.1526 20.3217 26.3914V19.2514C20.3217 18.4902 19.7064 17.8731 18.9474 17.8731Z" fill="#1BAF9A"/>
<path d="M23.5752 28.1315C23.5752 26.5322 24.868 25.2355 26.4628 25.2355H32.3807C33.9755 25.2355 35.2683 26.5322 35.2683 28.1315V31.7549H23.5752V28.1315Z" stroke="#104F54" stroke-width="1.35" stroke-miterlimit="10" stroke-linecap="round" stroke-linejoin="round"/>
<path d="M25.751 21.5549C25.751 23.5876 27.394 25.2354 29.4208 25.2354C31.4476 25.2354 33.0907 23.5876 33.0907 21.5549C33.0907 19.5222 31.4476 17.8744 29.4208 17.8744C27.394 17.8744 25.751 19.5222 25.751 21.5549Z" stroke="#104F54" stroke-width="1.35" stroke-miterlimit="10" stroke-linecap="round" stroke-linejoin="round"/>
<path d="M16.7456 21.3447H4.25098" stroke="#104F54" stroke-width="1.35" stroke-miterlimit="10" stroke-linecap="round" stroke-linejoin="round"/>
<path d="M16.7456 24.29H4.25098" stroke="#104F54" stroke-width="1.35" stroke-miterlimit="10" stroke-linecap="round" stroke-linejoin="round"/>
</svg>
