<svg width="26" height="26" viewBox="0 0 26 26" fill="none" xmlns="http://www.w3.org/2000/svg">
<path d="M24.4452 6.86202C25.4513 8.73001 25.9855 10.8291 25.9855 13.0105C25.9855 16.4811 24.6341 19.7438 22.1801 22.198C19.7261 24.6519 16.4632 25.9857 12.9928 25.9857C9.5223 25.9857 6.2596 24.6519 3.80539 22.198C1.35144 19.7437 0 16.4811 0 13.0105C0 9.54012 1.35144 6.27722 3.80539 3.82327C6.2596 1.36932 9.5223 0 12.9929 0C14.367 0 15.7083 0.230547 16.98 0.638727L15.3213 2.29765C14.5563 2.13148 13.7757 2.04776 12.9929 2.04791C6.94794 2.04791 2.03013 6.96576 2.03013 13.0105C2.03013 15.7759 3.05998 18.3053 4.75546 20.2359C5.34539 17.5963 7.17468 15.4196 9.59872 14.3507C8.58665 13.4279 7.95047 12.0994 7.95047 10.6252C7.95047 7.84489 10.2124 5.58279 12.9929 5.58279C15.7732 5.58279 18.0351 7.84469 18.0351 10.6252C18.0351 12.0994 17.3992 13.4279 16.3871 14.3507C18.8109 15.4196 20.6404 17.5963 21.2302 20.2359C22.9258 18.3051 23.9555 15.7759 23.9555 13.0105C23.9555 11.3566 23.5866 9.78707 22.9278 8.37951L24.4452 6.86202ZM12.9928 13.6373C14.6537 13.6373 16.005 12.286 16.005 10.6251C16.005 8.96406 14.6537 7.61277 12.9928 7.61277C11.3318 7.61277 9.9805 8.96406 9.9805 10.6251C9.9805 12.286 11.3318 13.6373 12.9928 13.6373ZM12.9928 23.9733C15.3831 23.9733 17.5969 23.2036 19.4004 21.9C19.306 18.4473 16.468 15.6673 12.9928 15.6673C9.51768 15.6673 6.67951 18.4473 6.58531 21.9C8.38886 23.2037 10.6024 23.9733 12.9928 23.9733Z" fill="#141414"/>
<circle cx="13" cy="13.0002" r="11.95" stroke="#141414" stroke-width="2.1"/>
</svg>
