<svg width="26" height="19" viewBox="0 0 26 19" fill="none" xmlns="http://www.w3.org/2000/svg">
<g clip-path="url(#clip0_10298_50717)">
<path d="M26.0002 15.55L22.4202 11.96C23.2285 10.881 23.6983 9.58628 23.7702 8.23999V7.88999C23.7728 6.98847 23.5967 6.09537 23.2521 5.26233C22.9074 4.4293 22.401 3.67287 21.7621 3.0368C21.1232 2.40072 20.3646 1.89762 19.5301 1.55659C18.6955 1.21556 17.8017 1.04337 16.9002 1.04999H16.5502C15.4898 1.1094 14.458 1.416 13.5372 1.94531C12.6164 2.47461 11.8322 3.21193 11.2472 4.09837C10.6622 4.98481 10.2927 5.99578 10.1681 7.05051C10.0435 8.10524 10.1674 9.17449 10.5297 10.1728C10.8921 11.1712 11.4829 12.0709 12.2551 12.8002C13.0272 13.5294 13.9591 14.068 14.9765 14.3728C15.9939 14.6776 17.0685 14.7403 18.1144 14.5557C19.1603 14.3712 20.1485 13.9446 21.0002 13.31L24.6202 16.93L26.0002 15.55ZM16.9002 12.72C15.9389 12.72 14.9993 12.435 14.2001 11.9009C13.4009 11.3669 12.7779 10.6079 12.4101 9.71983C12.0423 8.83178 11.946 7.8546 12.1335 6.91185C12.3211 5.9691 12.7839 5.10313 13.4636 4.42345C14.1433 3.74377 15.0093 3.2809 15.952 3.09337C16.8948 2.90585 17.8719 3.00209 18.76 3.36993C19.648 3.73778 20.4071 4.36069 20.9411 5.15992C21.4751 5.95914 21.7602 6.89877 21.7602 7.85999C21.7602 9.14894 21.2481 10.3851 20.3367 11.2965C19.4253 12.208 18.1891 12.72 16.9002 12.72Z" fill="#141414"/>
<path d="M10.34 0H0V2.05H10.34V0Z" fill="#141414"/>
<path d="M8.31 5.6499H0V7.6999H8.31V5.6499Z" fill="#141414"/>
<path d="M9.54 11.3H0V13.35H9.54V11.3Z" fill="#141414"/>
<path d="M15.6 16.95H0V19H15.6V16.95Z" fill="#141414"/>
</g>
<defs>
<clipPath id="clip0_10298_50717">
<rect width="25.97" height="19" fill="white"/>
</clipPath>
</defs>
</svg>
