<svg width="20" height="20" viewBox="0 0 20 20" fill="none" xmlns="http://www.w3.org/2000/svg">
<g clip-path="url(#clip0_8365_150958)">
<path d="M20 10C20 15.5275 15.5267 20 10 20C4.4725 20 0 15.5267 0 10C0 4.4725 4.47328 0 10 0C15.5275 0 20 4.47328 20 10Z" fill="#1BAF9A"/>
<path d="M14.4214 7.93135C14.7266 7.62631 14.7266 7.13162 14.4214 6.82646C14.1164 6.52139 13.6217 6.52139 13.3166 6.82646L8.62776 11.5153L6.68519 9.57275C6.38019 9.26756 5.8855 9.26756 5.58046 9.57275C5.27526 9.87775 5.27526 10.3724 5.58046 10.6774L8.07542 13.1726C8.38061 13.4776 8.87515 13.4776 9.1803 13.1726L14.4214 7.93135Z" fill="white"/>
</g>
<defs>
<clipPath id="clip0_8365_150958">
<rect width="20" height="20" fill="white"/>
</clipPath>
</defs>
</svg>
