<svg width="18" height="18" viewBox="0 0 18 18" fill="none" xmlns="http://www.w3.org/2000/svg">
<path d="M7.71993 12.2181L13.2812 6.68156L12.3626 5.76291L7.71993 10.3809L5.61833 8.30394L4.69971 9.22253L7.71993 12.2181ZM9.00169 18C7.76812 18 6.6043 17.7658 5.51033 17.2973C4.41634 16.8288 3.45879 16.1843 2.63769 15.3636C1.81659 14.5428 1.17169 13.5858 0.70301 12.4922C0.234337 11.3988 0 10.2352 0 9.00167C0 7.75159 0.23423 6.58372 0.702689 5.49798C1.17115 4.41222 1.81574 3.4588 2.63646 2.6377C3.45719 1.81659 4.4143 1.17169 5.50778 0.703011C6.60125 0.234337 7.76479 0 8.99837 0C10.2483 0 11.4163 0.23423 12.502 0.702691C13.5878 1.17115 14.5411 1.81575 15.3623 2.63647C16.1833 3.4572 16.8283 4.41019 17.2969 5.49543C17.7656 6.58067 18 7.74827 18 8.99834C18 10.2319 17.7657 11.3957 17.2973 12.4897C16.8289 13.5836 16.1842 14.5413 15.3635 15.3623C14.5428 16.1835 13.5898 16.8284 12.5046 17.297C11.4194 17.7657 10.2516 18 9.00169 18ZM9.00003 16.7143C11.1428 16.7143 12.9642 15.9644 14.4642 14.4644C15.9643 12.9643 16.7143 11.1429 16.7143 9.00001C16.7143 6.85709 15.9643 5.0357 14.4642 3.5357C12.9642 2.03569 11.1428 1.28569 9.00003 1.28569C6.85712 1.28569 5.03569 2.03569 3.53569 3.5357C2.03568 5.0357 1.28569 6.85709 1.28569 9.00001C1.28569 11.1429 2.03568 12.9643 3.53569 14.4644C5.03569 15.9644 6.85712 16.7143 9.00003 16.7143Z" fill="#141414"/>
</svg>
