<svg width="21" height="21" viewBox="0 0 21 21" fill="none" xmlns="http://www.w3.org/2000/svg">
<path d="M13.577 15.7755L10.1025 19.25C8.94505 20.4075 7.55052 20.9862 5.91893 20.9862C4.2875 20.9864 2.89312 20.4078 1.7358 19.2505C0.578485 18.0931 -0.000250219 16.6986 -0.00040376 15.0669C-0.000710884 13.435 0.577872 12.0403 1.73534 10.8828L5.20984 7.40833L6.59254 8.79103L3.11804 12.2655C2.34389 13.0397 1.95688 13.9733 1.95704 15.0664C1.95704 16.1597 2.34404 17.0933 3.11804 17.8673C3.89205 18.6413 4.82568 19.0283 5.91893 19.0283C7.01203 19.0285 7.94566 18.6415 8.71982 17.8673L12.1943 14.3928L13.577 15.7755ZM7.72704 14.641L6.34434 13.2583L13.2578 6.3448L14.6405 7.7275L7.72704 14.641ZM15.775 13.5775L14.3923 12.1948L17.8668 8.72028C18.641 7.94612 19.028 7.01249 19.0278 5.91939C19.0278 4.82613 18.6408 3.89251 17.8668 3.1185C17.0928 2.3445 16.1592 1.95749 15.0659 1.95749C13.9728 1.95734 13.0392 2.34434 12.2651 3.1185L8.79057 6.59299L7.40787 5.2103L10.8824 1.7358C12.0398 0.57833 13.4344 -0.000407581 15.0659 -0.000408129C16.6974 -0.000562302 18.0918 0.578022 19.2491 1.73534C20.4064 2.89266 20.9851 4.28719 20.9853 5.91893C20.9856 7.55082 20.407 8.9455 19.2495 10.103L15.775 13.5775Z" fill="black"/>
</svg>
