<svg width="20" height="20" viewBox="0 0 20 20" fill="none" xmlns="http://www.w3.org/2000/svg">
<path d="M10 0C4.47297 0 0 4.47254 0 10C0 15.5271 4.47254 20 10 20C15.527 20 20 15.5275 20 10C20 4.47293 15.5275 0 10 0ZM10 18.4375C5.33656 18.4375 1.5625 14.6638 1.5625 10C1.5625 5.33652 5.33621 1.5625 10 1.5625C14.6634 1.5625 18.4375 5.33621 18.4375 10C18.4375 14.6635 14.6638 18.4375 10 18.4375ZM13.4213 7.68352L11.1048 10L13.4213 12.3165C13.7264 12.6216 13.7265 13.1163 13.4214 13.4213C13.1163 13.7264 12.6215 13.7264 12.3165 13.4213L10 11.1048L7.68348 13.4213C7.37848 13.7264 6.88383 13.7265 6.57863 13.4213C6.27352 13.1162 6.27355 12.6216 6.57867 12.3165L8.89516 10L6.57867 7.68352C6.27355 7.3784 6.27352 6.88375 6.57863 6.57867C6.88375 6.27359 7.37848 6.27355 7.68348 6.57867L10 8.89516L12.3165 6.57867C12.6216 6.27359 13.1163 6.27355 13.4214 6.57867C13.7264 6.88379 13.7264 7.37844 13.4213 7.68352Z" fill="#D1D1D1"/>
</svg>
