<svg width="24" height="24" viewBox="0 0 24 24" fill="none" xmlns="http://www.w3.org/2000/svg">
<path d="M23.8164 20.739L21.8545 6.09798H16.5712V4.65495C16.5712 2.08821 14.4831 0 11.9163 0C9.34951 0 7.26135 2.08821 7.26135 4.65495V6.09798H1.97807L0.0189933 20.7158L0.0161538 20.739C-0.025936 21.1289 0.0144488 21.5233 0.134686 21.8966C0.254923 22.2699 0.452324 22.6137 0.71407 22.9057C0.976159 23.1974 1.29667 23.4308 1.6548 23.5906C2.01293 23.7504 2.40066 23.8331 2.79283 23.8333H21.0398C21.8318 23.8333 22.5895 23.4952 23.1185 22.9057C23.6475 22.3162 23.9019 21.5265 23.8164 20.739ZM9.12333 4.65495C9.12333 3.1149 10.3763 1.86198 11.9163 1.86198C13.4563 1.86198 14.7093 3.1149 14.7093 4.65495V6.09798H9.12333V4.65495ZM21.7327 21.6622C21.5538 21.8615 21.3077 21.9714 21.0398 21.9714H2.79283C2.52489 21.9714 2.27883 21.8615 2.09989 21.6622C1.92315 21.4652 1.84038 21.2125 1.86622 20.9496L3.60712 7.95996H7.26135V10.7995H9.12333V7.95996H14.7093V10.7995H16.5712V7.95996H20.2255L21.9663 20.9496C21.9922 21.2125 21.9094 21.4652 21.7327 21.6622Z" fill="#141414"/>
</svg>
