<svg width="35" height="35" viewBox="0 0 35 35" fill="none" xmlns="http://www.w3.org/2000/svg">
<path d="M34.1944 13.4187C35.2665 12.3476 35.2672 10.6119 34.1947 9.54022L31.285 6.62973L30.8016 7.11316C29.9976 7.91719 28.6895 7.91719 27.8855 7.11316C27.0798 6.30756 27.0797 5.00295 27.8855 4.19714L28.369 3.71371L25.4587 0.804251C24.3876 -0.267673 22.6518 -0.268425 21.5801 0.804046L4.52148 17.8434H29.7697L34.1944 13.4187Z" fill="#1BAF9A"/>
<path d="M11.231 27.5377C12.034 26.7345 13.3361 26.7345 14.1391 27.5377H14.1391C14.942 28.3406 14.942 29.6426 14.1391 30.4456C13.3361 31.2487 12.0341 31.2488 11.2311 30.4456C10.428 29.6426 10.4279 28.3406 11.231 27.5377ZM12.9297 21.9562C13.1966 21.6892 13.6294 21.6892 13.8964 21.9562C14.1634 22.2231 14.1634 22.6559 13.8964 22.9229L6.61633 30.203C6.34938 30.47 5.91658 30.47 5.64962 30.203C5.38267 29.9361 5.38267 29.5033 5.64962 29.2363L12.9297 21.9562ZM13.1724 28.5044C12.9033 28.2352 12.4669 28.2352 12.1978 28.5044L12.1977 28.5044C11.937 28.765 11.9289 29.1826 12.1733 29.4531L12.1978 29.4788L12.1979 29.479C12.4669 29.748 12.9032 29.7481 13.1724 29.4789C13.433 29.2182 13.4411 28.8005 13.1968 28.5301L13.1724 28.5044ZM5.40696 21.7137C6.20996 20.9106 7.51187 20.9105 8.3149 21.7136C9.1181 22.5166 9.11802 23.8186 8.31497 24.6216C7.51192 25.4247 6.20989 25.4248 5.40689 24.6216L5.40696 24.6215C4.60399 23.8185 4.60387 22.5167 5.40696 21.7137ZM7.34819 22.6803C7.07909 22.4112 6.64277 22.4112 6.37367 22.6803L6.3736 22.6804C6.11296 22.941 6.10475 23.3586 6.34924 23.6292L6.37367 23.6549L6.37374 23.655C6.64273 23.924 7.07905 23.9241 7.34826 23.6549C7.61747 23.3857 7.61737 22.9494 7.34833 22.6804L7.34819 22.6803Z" fill="#104F54"/>
<path d="M28.8248 30.2009C29.2023 30.2009 29.5084 30.5069 29.5084 30.8845C29.5084 31.262 29.2023 31.568 28.8248 31.5681H19.902C19.5245 31.568 19.2185 31.262 19.2185 30.8845C19.2185 30.5069 19.5245 30.2009 19.902 30.2009H28.8248ZM16.4729 29.3745V27.7271C16.4729 27.3496 16.779 27.0435 17.1565 27.0435C17.5341 27.0435 17.8401 27.3496 17.8401 27.7271V29.3745C17.8401 29.752 17.5341 30.0581 17.1565 30.0581C16.779 30.0581 16.4729 29.752 16.4729 29.3745ZM28.8248 26.9979C29.2023 26.9979 29.5084 27.3039 29.5084 27.6814C29.5084 28.059 29.2023 28.365 28.8248 28.365H19.902C19.5245 28.365 19.2185 28.059 19.2185 27.6814C19.2185 27.3039 19.5245 26.9979 19.902 26.9979H28.8248ZM28.8248 23.7948C29.2023 23.7948 29.5084 24.1008 29.5084 24.4783C29.5084 24.8558 29.2023 25.1619 28.8248 25.1619H19.902C19.5245 25.1619 19.2185 24.8558 19.2185 24.4783C19.2185 24.1008 19.5245 23.7948 19.902 23.7948H28.8248ZM16.4729 24.4326V22.7853C16.473 22.4078 16.779 22.1018 17.1565 22.1017C17.5341 22.1017 17.8401 22.4078 17.8401 22.7853V24.4326C17.8401 24.8101 17.5341 25.1162 17.1565 25.1162C16.779 25.1162 16.4729 24.8101 16.4729 24.4326ZM28.8248 20.5917C29.2023 20.5917 29.5084 20.8978 29.5084 21.2753C29.5084 21.6528 29.2023 21.9589 28.8248 21.9589H19.902C19.5245 21.9589 19.2185 21.6528 19.2185 21.2753C19.2185 20.8978 19.5245 20.5917 19.902 20.5917H28.8248ZM16.4729 19.4907V18.527H2.74272C1.98298 18.527 1.36719 19.1428 1.36719 19.9025V22.7189C2.93349 23.0358 4.11264 24.42 4.11264 26.0798C4.11264 27.7396 2.93346 29.1239 1.36719 29.4408V32.2571C1.36719 33.0169 1.98299 33.6327 2.74272 33.6327H16.4729V32.6691C16.4729 32.2916 16.779 31.9855 17.1565 31.9855C17.5341 31.9855 17.8401 32.2915 17.8401 32.6691V33.6327H32.2567C33.0164 33.6327 33.6322 33.0169 33.6322 32.2571V29.4408C32.0659 29.1239 30.8867 27.7396 30.8867 26.0798C30.8867 24.42 32.0659 23.0358 33.6322 22.7189V19.9025C33.6322 19.1428 33.0164 18.527 32.2567 18.527H17.8401V19.4907C17.8401 19.8683 17.5341 20.1743 17.1565 20.1743C16.779 20.1743 16.473 19.8683 16.4729 19.4907ZM23.8461 7.92219C24.1131 7.65523 24.5459 7.65524 24.8128 7.92219C25.0798 8.18914 25.0798 8.62194 24.8128 8.8889L18.5035 15.1983C18.2365 15.4652 17.8037 15.4652 17.5367 15.1983C17.2698 14.9313 17.2698 14.4984 17.5368 14.2315L23.8461 7.92219ZM21.5812 5.65725C21.8482 5.39029 22.281 5.39029 22.548 5.65725C22.8149 5.9242 22.8149 6.35707 22.548 6.62402L16.2386 12.9334C15.9716 13.2003 15.5388 13.2003 15.2718 12.9334C15.0049 12.6664 15.0049 12.2336 15.2718 11.9667L21.5812 5.65725ZM34.9994 23.3344C34.9994 23.7119 34.6933 24.0179 34.3158 24.0179C33.177 24.018 32.2539 24.9411 32.2539 26.0798C32.2539 27.2186 33.177 28.1418 34.3158 28.1418C34.6933 28.1418 34.9994 28.4478 34.9994 28.8253V32.2571C34.9994 33.7719 33.7715 34.9999 32.2567 34.9999H2.74272C1.22793 34.9999 0 33.7719 0 32.2571V28.8253C1.74127e-05 28.4478 0.306073 28.1418 0.683594 28.1418C1.8223 28.1418 2.74546 27.2186 2.74546 26.0798C2.74545 24.941 1.82238 24.0179 0.683594 24.0179C0.306062 24.0179 0 23.7119 0 23.3344V19.9025C2.70425e-06 18.3878 1.22794 17.1599 2.74272 17.1598H19.1384L26.1107 10.1868C26.3776 9.91983 26.8104 9.9198 27.0774 10.1867C27.3444 10.4537 27.3444 10.8865 27.0775 11.1534L21.0717 17.1598H23.6685L28.3758 12.4519C28.6427 12.1849 29.0756 12.1849 29.3425 12.4518C29.6095 12.7187 29.6095 13.1515 29.3426 13.4185L25.6018 17.1598H32.2567C33.7715 17.1599 34.9994 18.3878 34.9994 19.9025V23.3344Z" fill="#104F54"/>
</svg>
