<svg width="10" height="16" viewBox="0 0 10 16" fill="none" xmlns="http://www.w3.org/2000/svg">
<path d="M9.33499 4.07284C9.33499 3.05204 8.43763 2.22155 7.33464 2.22155H6.66785V1.23419H8.00142V0H1.33357V1.23419H2.66714V2.22155H2.00036C0.89736 2.22155 0 3.05204 0 4.07284V5.30703C0 5.78075 0.193234 6.21346 0.510591 6.54123C0.193234 6.869 0 7.30171 0 7.77542V13.9464C0 14.9672 0.89736 15.7977 2.00036 15.7977H7.33464C8.43763 15.7977 9.33499 14.9672 9.33499 13.9464V7.77542C9.33499 7.30171 9.14176 6.869 8.8244 6.54123C9.14179 6.21346 9.33499 5.78075 9.33499 5.30703V4.07284ZM4.00071 1.23419H5.33428V2.22155H4.00071V1.23419ZM8.00142 5.30703C8.00142 5.6473 7.7023 5.92413 7.33464 5.92413V7.15832C7.7023 7.15832 8.00142 7.43515 8.00142 7.77542V13.9464C8.00142 14.2867 7.7023 14.5635 7.33464 14.5635H2.00036C1.63269 14.5635 1.33357 14.2867 1.33357 13.9464V7.77542C1.33357 7.43515 1.63269 7.15832 2.00036 7.15832V5.92413C1.63269 5.92413 1.33357 5.6473 1.33357 5.30703V4.07284C1.33357 3.73257 1.63269 3.45574 2.00036 3.45574H7.33464C7.7023 3.45574 8.00142 3.73257 8.00142 4.07284V5.30703ZM5.93069 6.81719L4.73791 6.26523L2.92182 9.62671H4.25539L3.40431 11.202L4.59708 11.754L6.41314 8.39252H5.07957L5.93069 6.81719Z" fill="#6D6D6D"/>
</svg>
