<svg width="16" height="12" viewBox="0 0 16 12" fill="none" xmlns="http://www.w3.org/2000/svg">
<path d="M14.4375 0H1.5625C0.707687 0 0 0.754986 0 1.69935V9.85621C0 10.7932 0.700938 11.5556 1.5625 11.5556H14.4375C15.2991 11.5556 16 10.7932 16 9.85621V1.69935C16 0.767459 15.3025 0 14.4375 0ZM13.2265 1.35948L8 4.97236L2.7735 1.35948H13.2265ZM14.4375 10.1961H1.5625C1.39019 10.1961 1.25 10.0436 1.25 9.85621V1.9172L7.66472 6.35144C7.76494 6.42072 7.88123 6.45752 7.99998 6.45752C8.11874 6.45752 8.23503 6.42072 8.33525 6.35144L14.75 1.9172V9.85621C14.75 10.0436 14.6098 10.1961 14.4375 10.1961Z" fill="#6A6A6A"/>
</svg>
