<svg width="154" height="141" viewBox="0 0 154 141" fill="none" xmlns="http://www.w3.org/2000/svg">
<path d="M121.637 28.8359C131 26.7541 132.281 32.2896 133.973 40.1855C135.453 47.0947 147.625 94.7957 153.218 122.594C154.985 131.38 149.001 134.252 144.336 134.93L86.1074 140.358C69.5004 141.753 68.7022 130.71 68.8369 126.752C69.5004 107.252 67.8503 74.7277 64.8896 48.0811C64.4143 41.6659 69.8236 39.6916 72.291 39.1992L121.637 28.8359ZM87.5879 40.1855C85.6804 40.1858 84.1338 41.7331 84.1338 43.6406C84.134 45.548 85.6805 47.0945 87.5879 47.0947C89.4955 47.0947 91.0428 45.5482 91.043 43.6406C91.043 41.7329 89.4956 40.1855 87.5879 40.1855ZM114.234 35.248C112.327 35.2483 110.78 36.7956 110.78 38.7031C110.78 40.6105 112.327 42.157 114.234 42.1572C116.142 42.1572 117.689 40.6107 117.689 38.7031C117.689 36.7954 116.142 35.248 114.234 35.248Z" fill="#1BAF9A"/>
<path d="M87.6203 44.1157C85.6462 33.753 81.3723 12.5549 86.1095 6.6334C88.0534 3.71748 92.5641 -0.113811 98.1299 1.74172C102.977 3.35779 105.506 8.47789 107.38 13.2317C110.455 21.0308 113.947 31.6725 114.237 39.2003" stroke="#141414" stroke-width="2.5" stroke-linecap="round"/>
<path d="M86.8643 71.2366C86.9716 71.4217 90.9418 78.0527 95.6786 85.9769C105.706 102.763 105.346 102.167 105.506 102.145C105.57 102.136 107.212 96.1324 109.158 88.8238C111.102 81.5001 113.148 73.7465 113.722 71.5876C114.296 69.4287 114.79 67.512 114.826 67.3068L114.875 66.9613L112.74 67.2613C111.179 67.4807 110.566 67.6285 110.457 67.7822C110.377 67.9013 110.179 68.5757 110.015 69.2606C109.838 69.9629 109.092 72.9773 108.325 75.9636C107.559 78.95 106.434 83.4338 105.827 85.936C105.22 88.4382 104.577 90.9146 104.408 91.4464L104.106 92.4126L103.691 91.778C103.235 91.0725 101.329 87.7997 96.2215 78.9732C94.3357 75.7284 92.4457 72.4534 92.0008 71.7155L91.1938 70.3664L88.925 70.6391L86.6562 70.9118L86.8643 71.2366Z" fill="white"/>
<path d="M115.589 86.9384C115.696 87.7009 115.912 89.156 116.021 90.0091L116.237 91.548L114.699 91.7641L111.624 92.1964L111.838 93.721L112.056 95.2741L115.132 94.8418L116.67 94.6257L116.886 96.1645L117.318 99.2422L118.856 99.0261L120.394 98.81L119.962 95.7323L119.745 94.1934L121.283 93.9773L124.359 93.5451L124.157 92.1947C124.091 91.5648 123.963 90.5707 123.926 90.4674C123.157 90.5754 123.926 90.4674 120.872 90.8966L119.313 91.1157L119.096 89.5769L118.664 86.4992L117.16 86.7177C116.142 86.8366 117.16 86.7177 115.589 86.9384Z" fill="white"/>
<path d="M15.0504 90.2734C15.7317 90.2734 16.2841 90.8258 16.2841 91.5071C16.2841 92.1884 15.7317 92.7407 15.0504 92.7407H1.23364C0.55232 92.7407 0 92.1884 0 91.5071C0 90.8258 0.55232 90.2734 1.23364 90.2734H15.0504Z" fill="#141414"/>
<path d="M34.0081 66.9089C35.7364 65.4528 37.9242 65.1204 39.9431 65.414C43.9197 65.9925 46.2226 69.4112 46.7011 72.8025C47.1798 76.1958 45.8995 80.0874 42.1453 81.6086C41.1269 82.0213 40.1487 82.2606 39.3927 82.3614L39.3118 82.3729H7.64868C6.96749 82.3729 6.41525 81.8204 6.41504 81.1393C6.41504 80.4579 6.96736 79.9056 7.64868 79.9056H39.1364C39.6769 79.8269 40.4227 79.6438 41.2182 79.3216C43.5974 78.3575 44.6334 75.8099 44.2579 73.1475C43.8821 70.4832 42.1604 68.2296 39.5884 67.8553C38.0551 67.6323 36.6428 67.9161 35.5983 68.796C34.5599 69.6709 33.668 71.3183 33.5542 74.278C33.5279 74.9587 32.9549 75.4896 32.2743 75.4635C31.5934 75.4373 31.0626 74.8635 31.0888 74.1826C31.2199 70.7784 32.2741 68.37 34.0081 66.9089Z" fill="#141414"/>
</svg>
