<svg width="20" height="20" viewBox="0 0 20 20" fill="none" xmlns="http://www.w3.org/2000/svg">
<path fill-rule="evenodd" clip-rule="evenodd" d="M10 20C15.523 20 20 15.523 20 10C20 4.477 15.523 0 10 0C4.477 0 0 4.477 0 10C0 15.523 4.477 20 10 20ZM13.707 6.293C13.8945 6.48053 13.9998 6.73484 13.9998 7C13.9998 7.26516 13.8945 7.51947 13.707 7.707L11.414 10L13.707 12.293C13.8892 12.4816 13.99 12.7342 13.9877 12.9964C13.9854 13.2586 13.8802 13.5094 13.6948 13.6948C13.5094 13.8802 13.2586 13.9854 12.9964 13.9877C12.7342 13.99 12.4816 13.8892 12.293 13.707L10 11.414L7.707 13.707C7.5184 13.8892 7.2658 13.99 7.0036 13.9877C6.7414 13.9854 6.49059 13.8802 6.30518 13.6948C6.11977 13.5094 6.0146 13.2586 6.01233 12.9964C6.01005 12.7342 6.11084 12.4816 6.293 12.293L8.586 10L6.293 7.707C6.11084 7.5184 6.01005 7.2658 6.01233 7.0036C6.0146 6.7414 6.11977 6.49059 6.30518 6.30518C6.49059 6.11977 6.7414 6.0146 7.0036 6.01233C7.2658 6.01005 7.5184 6.11084 7.707 6.293L10 8.586L12.293 6.293C12.4805 6.10553 12.7348 6.00021 13 6.00021C13.2652 6.00021 13.5195 6.10553 13.707 6.293Z" fill="white"/>
</svg>
