<svg width="35" height="35" viewBox="0 0 35 35" fill="none" xmlns="http://www.w3.org/2000/svg">
<g clip-path="url(#clip0_6543_75467)">
<mask id="mask0_6543_75467" style="mask-type:luminance" maskUnits="userSpaceOnUse" x="0" y="0" width="35" height="35">
<path d="M0 0.000102997H34.9999V35H0V0.000102997Z" fill="white"/>
<path d="M34.9999 35V0.000133514H0V35H34.9999ZM1.29883 1.29896H33.701V33.7012H1.29883V1.29896Z" fill="white"/>
</mask>
<g mask="url(#mask0_6543_75467)">
<path d="M14.89 15.2638C15.4381 15.4293 16.0091 15.4721 16.4873 15.4304C17.2104 15.3672 17.8077 15.1131 18.235 14.7001C18.6632 14.2864 18.8822 13.7492 18.9037 13.1995C18.9468 12.1034 18.2181 11.0159 16.9604 10.5713L16.9604 10.5713C16.0503 10.2496 15.477 10.0228 15.2755 9.92778H15.2754C14.7973 9.70231 14.6853 9.35034 14.7317 9.0279C14.7858 8.65189 15.051 8.33809 15.3509 8.24777L15.3999 8.23342C16.4228 7.94257 17.0411 8.31334 17.2194 8.56734C17.4254 8.86091 17.8304 8.9319 18.124 8.72589C18.4176 8.51986 18.4886 8.11484 18.2826 7.82126C17.7119 7.00802 16.4643 6.58128 15.044 6.98432L14.9762 7.00415C14.128 7.25967 13.5619 8.03745 13.4461 8.84305C13.3245 9.68876 13.6904 10.5931 14.6741 11.0797L14.7215 11.1026C14.9899 11.2291 15.6208 11.4754 16.5276 11.7959L16.5636 11.8089C17.3131 12.0889 17.6241 12.6844 17.6059 13.1485C17.5967 13.3826 17.5069 13.5975 17.3324 13.7662C17.1571 13.9356 16.8579 14.0943 16.3744 14.1365C16.0486 14.1649 15.6442 14.1348 15.2655 14.0205C14.8855 13.9057 14.5753 13.7203 14.3759 13.4727C14.1509 13.1934 13.7421 13.1494 13.4628 13.3743C13.1835 13.5993 13.1394 14.0081 13.3644 14.2874C13.7751 14.7973 14.3432 15.0987 14.89 15.2638Z" fill="#104F54"/>
<path d="M15.3145 6.69284V15.4873C15.3145 15.846 15.6052 16.1367 15.9639 16.1367C16.3225 16.1367 16.6133 15.846 16.6133 15.4873V6.69284C16.6133 6.33418 16.3225 6.04343 15.9639 6.04343C15.6052 6.04343 15.3145 6.33418 15.3145 6.69284Z" fill="#104F54"/>
<path d="M26.1057 23.3303V33.0356L24.9058 33.5982L22.2271 32.3421C22.0524 32.2602 21.8504 32.2602 21.6757 32.3421L18.9971 33.5982L16.3187 32.3421C16.144 32.2602 15.942 32.2602 15.7673 32.3421L13.0885 33.5982L10.4098 32.3421C10.2352 32.2602 10.0331 32.2602 9.85842 32.3421L7.17952 33.5982L6.02148 33.0552V1.96269L7.22131 1.4L9.90008 2.65617C10.0748 2.73808 10.2769 2.73808 10.4516 2.65617L13.1302 1.40006L15.8084 2.6561L15.8415 2.67052C16.0083 2.73773 16.1961 2.73297 16.3599 2.65617L19.0385 1.4L21.7173 2.65617C21.892 2.73808 22.0941 2.73808 22.2688 2.65617L24.9476 1.4L26.1057 1.94307V14.452C26.1057 14.8107 26.3964 15.1014 26.7551 15.1014C27.1137 15.1014 27.4045 14.8107 27.4045 14.452V1.53031C27.4045 1.27843 27.2589 1.04925 27.0308 0.94231L25.2234 0.0947609C25.0487 0.0128441 24.8467 0.0128479 24.672 0.0947609L21.9931 1.35093L19.3143 0.0947609C19.1396 0.0128441 18.9375 0.0128441 18.7628 0.0947609L16.0841 1.35086L13.406 0.0947609C13.2313 0.0128326 13.0292 0.0128365 12.8545 0.0947609L10.1757 1.35093L7.49702 0.0947609C7.32233 0.0128479 7.12029 0.0128441 6.9456 0.0947609L5.09636 0.961937C4.86832 1.06888 4.72266 1.29806 4.72266 1.54993V33.4679C4.72266 33.7198 4.86831 33.9489 5.09636 34.0559L6.90388 34.9034L6.93693 34.9178C7.10368 34.985 7.29148 34.9802 7.45523 34.9034L10.1341 33.6474L12.8129 34.9034L12.8459 34.9178C13.0127 34.985 13.2005 34.9802 13.3643 34.9034L16.0429 33.6474L18.7213 34.9034L18.7544 34.9178C18.9212 34.985 19.109 34.9802 19.2728 34.9034L21.9514 33.6473L24.6301 34.9034L24.6632 34.9178C24.8299 34.985 25.0178 34.9802 25.1815 34.9034L27.0308 34.0363C27.2588 33.9293 27.4045 33.7002 27.4045 33.4483V23.3303C27.4045 22.9716 27.1137 22.6809 26.7551 22.6809C26.3964 22.6809 26.1057 22.9716 26.1057 23.3303Z" fill="#104F54"/>
<path d="M22.0902 21.1465C22.4489 21.1465 22.7396 20.8557 22.7396 20.4971C22.7396 20.1384 22.4489 19.8477 22.0902 19.8477H10.0361C9.67747 19.8477 9.38672 20.1384 9.38672 20.4971C9.38672 20.8557 9.67747 21.1465 10.0361 21.1465H22.0902Z" fill="#104F54"/>
<path d="M22.0902 24.3379C22.4489 24.3379 22.7396 24.0471 22.7396 23.6885C22.7396 23.3298 22.4489 23.0391 22.0902 23.0391H10.0361C9.67747 23.0391 9.38672 23.3298 9.38672 23.6885C9.38672 24.0471 9.67747 24.3379 10.0361 24.3379H22.0902Z" fill="#104F54"/>
<path d="M18.5462 27.5293C18.9048 27.5293 19.1956 27.2385 19.1956 26.8799C19.1956 26.5212 18.9048 26.2305 18.5462 26.2305H13.5811C13.2224 26.2305 12.9316 26.5212 12.9316 26.8799C12.9316 27.2385 13.2224 27.5293 13.5811 27.5293H18.5462Z" fill="#104F54"/>
<path d="M34.3128 19.6141C34.3128 23.7882 30.9291 27.1719 26.755 27.1719C22.581 27.1719 19.1973 23.7882 19.1973 19.6141C19.1973 15.44 22.581 12.0563 26.755 12.0563C30.9291 12.0563 34.3128 15.44 34.3128 19.6141Z" fill="#1BAF9A"/>
<path d="M33.0139 19.6141C33.0139 23.0708 30.2117 25.873 26.755 25.873C23.2983 25.873 20.4961 23.0708 20.4961 19.6141C20.4961 16.1573 23.2983 13.3551 26.755 13.3551V12.0563C22.581 12.0563 19.1973 15.44 19.1973 19.6141C19.1973 23.7882 22.581 27.1719 26.755 27.1719C30.9291 27.1719 34.3128 23.7882 34.3128 19.6141C34.3128 15.44 30.9291 12.0563 26.755 12.0563V13.3551C30.2117 13.3551 33.0139 16.1573 33.0139 19.6141Z" fill="#104F54"/>
<path d="M25.1229 23.4668C25.4536 23.6056 25.8342 23.45 25.973 23.1193L28.8267 16.319C28.9655 15.9883 28.8099 15.6077 28.4792 15.4689C28.1485 15.3301 27.7679 15.4857 27.6291 15.8164L24.7754 22.6167C24.6366 22.9475 24.7922 23.328 25.1229 23.4668Z" fill="#104F54"/>
<path d="M25.4399 17.2172C25.4398 17.7628 25.0779 18.0332 24.8284 18.0332C24.5788 18.0332 24.2168 17.7629 24.2168 17.2172C24.2168 16.6716 24.5788 16.4013 24.8284 16.4013C25.078 16.4013 25.4399 16.6716 25.4399 17.2172ZM26.7387 17.2172C26.7387 16.1442 25.9715 15.1024 24.8284 15.1024C23.6852 15.1024 22.918 16.1442 22.918 17.2172C22.918 18.2902 23.6852 19.332 24.8284 19.332C25.9715 19.332 26.7387 18.2902 26.7387 17.2172Z" fill="#104F54"/>
<path d="M29.2934 21.8657C29.2934 22.4113 28.9315 22.6816 28.6819 22.6816C28.4323 22.6816 28.0703 22.4113 28.0703 21.8657C28.0703 21.32 28.4323 21.0496 28.6819 21.0496C28.9315 21.0496 29.2934 21.32 29.2934 21.8657ZM30.5922 21.8657C30.5922 20.7928 29.8252 19.7508 28.6819 19.7508C27.5387 19.7508 26.7715 20.7927 26.7715 21.8657C26.7715 22.9386 27.5387 23.9805 28.6819 23.9805C29.8251 23.9805 30.5922 22.9386 30.5922 21.8657Z" fill="#104F54"/>
</g>
</g>
<defs>
<clipPath id="clip0_6543_75467">
<rect width="35" height="35" fill="white"/>
</clipPath>
</defs>
</svg>
