<svg width="35" height="35" viewBox="0 0 35 35" fill="none" xmlns="http://www.w3.org/2000/svg">
<g clip-path="url(#clip0_6543_75166)">
<path d="M30.8879 27.1088C30.8879 25.9701 29.9647 25.0469 28.8259 25.0469C27.6871 25.0469 26.7639 25.97 26.7639 27.1088C26.7639 28.2475 27.6871 29.1707 28.8259 29.1707C29.9647 29.1707 30.8879 28.2476 30.8879 27.1088ZM4.11328 27.1088C4.11328 28.2476 5.03641 29.1707 6.17521 29.1707C7.31404 29.1707 8.2372 28.2476 8.23721 27.1088C8.23721 25.9701 7.31403 25.0469 6.17521 25.0469C5.0364 25.0469 4.11328 25.97 4.11328 27.1088ZM32.255 27.1088C32.255 29.0027 30.7198 30.5379 28.8259 30.5379C27.1662 30.5379 25.7818 29.3587 25.465 27.7924H9.53617C9.2193 29.3587 7.83499 30.5379 6.17521 30.5379C4.28132 30.5379 2.7461 29.0026 2.74609 27.1088C2.74609 25.2149 4.28132 23.6797 6.17521 23.6797C7.83499 23.6797 9.2193 24.8589 9.53617 26.4252H25.465C25.7818 24.8589 27.1662 23.6797 28.8259 23.6797C30.7197 23.6797 32.255 25.215 32.255 27.1088Z" fill="#104F54"/>
<path d="M0 25.7346V21.6163C0 21.2388 0.306055 20.9327 0.683594 20.9327H23.3342C23.7118 20.9327 24.0178 21.2388 24.0178 21.6163C24.0178 21.9939 23.7118 22.2999 23.3342 22.2999H1.36719V25.7346C1.3672 26.1152 1.67567 26.4238 2.05639 26.4238H3.42912C3.80665 26.4238 4.11271 26.7298 4.11271 27.1074C4.11269 27.4849 3.80664 27.791 3.42912 27.791H2.05639C0.920639 27.791 1.4092e-05 26.8704 0 25.7346ZM29.7403 12.0098C30.1179 12.0098 30.4239 12.3158 30.4239 12.6934C30.4239 13.0709 30.1179 13.377 29.7403 13.377H26.7634V17.5008H34.3164C34.6939 17.5008 35 17.8069 35 18.1844C35 18.5619 34.6939 18.868 34.3164 18.868H26.0798C25.7022 18.868 25.3962 18.5619 25.3962 18.1844V12.6934C25.3962 12.3158 25.7022 12.0098 26.0798 12.0098H29.7403Z" fill="#104F54"/>
<path d="M23.3345 18.8706H0.683594V7.88867H23.3345V18.8706Z" fill="#1BAF9A"/>
<path d="M33.6328 25.7357V18.433L27.1323 10.6324H24.018V27.1084C24.018 27.4859 23.712 27.792 23.3344 27.792C22.9569 27.792 22.6509 27.4859 22.6509 27.1084V6.51719C22.6509 6.1366 22.3424 5.82812 21.9618 5.82812H2.05626C1.67569 5.82812 1.36719 6.13663 1.36719 6.51719V21.6178C1.36717 21.9953 1.06112 22.3014 0.683594 22.3014C0.306066 22.3014 1.80385e-05 21.9953 0 21.6178V6.51719C0 5.38155 0.920611 4.46094 2.05626 4.46094H21.9618C23.0975 4.46094 24.018 5.38157 24.018 6.51719V9.26519H27.4524L27.4715 9.26545C27.6673 9.27089 27.8518 9.36014 27.9776 9.51112L34.8416 17.7478C34.9439 17.8707 35 18.0255 35 18.1854V25.7357C35 26.8714 34.0794 27.792 32.9437 27.792H31.5711C31.1936 27.792 30.8875 27.4859 30.8875 27.1084C30.8875 26.7309 31.1936 26.4248 31.5711 26.4248H32.9437C33.3243 26.4248 33.6328 26.1163 33.6328 25.7357Z" fill="#104F54"/>
<path d="M34.3172 21.62C34.6947 21.62 35.0008 21.926 35.0008 22.3035C35.0008 22.6811 34.6947 22.9871 34.3172 22.9871H31.5717C31.1941 22.9871 30.8881 22.6811 30.8881 22.3035C30.8881 21.926 31.1941 21.62 31.5717 21.62H34.3172ZM2.74609 16.0325V10.7285C2.74609 10.351 3.05215 10.0449 3.42969 10.0449H5.5796C5.95714 10.0449 6.2632 10.351 6.2632 10.7285C6.2632 11.106 5.95714 11.4121 5.5796 11.4121H4.11328V12.6467H5.4087C5.78623 12.6467 6.09228 12.9527 6.0923 13.3302C6.0923 13.7078 5.78624 14.0138 5.4087 14.0138H4.11328V16.0325C4.11328 16.41 3.80723 16.7161 3.42969 16.7161C3.05215 16.7161 2.74609 16.41 2.74609 16.0325ZM10.4188 12.1067C10.4188 11.7631 10.098 11.4121 9.64552 11.4121H8.92207L8.92721 12.8043C9.19375 12.803 9.4762 12.8019 9.64552 12.8019C10.0977 12.8019 10.4188 12.451 10.4188 12.1067ZM15.9606 10.0449C16.3382 10.0449 16.6442 10.351 16.6442 10.7285C16.6442 11.1061 16.3382 11.4121 15.9606 11.4121H14.4096V12.6973H15.7959C16.1734 12.6973 16.4795 13.0033 16.4795 13.3808C16.4795 13.7584 16.1735 14.0644 15.7959 14.0644H14.4096V15.3489H15.9605C16.3381 15.3489 16.6441 15.655 16.6441 16.0325C16.6441 16.41 16.3381 16.7161 15.9605 16.7161H13.726C13.3484 16.7161 13.0424 16.41 13.0424 16.0325V10.7285C13.0424 10.351 13.3484 10.0449 13.726 10.0449H15.9606ZM20.5892 10.0449C20.9668 10.0449 21.2728 10.351 21.2728 10.7285C21.2728 11.1061 20.9668 11.4121 20.5892 11.4121H19.0382V12.6973H20.4245C20.8021 12.6973 21.1081 13.0033 21.1081 13.3808C21.1081 13.7584 20.8021 14.0644 20.4245 14.0644H19.0382V15.3489H20.5892C20.9667 15.3489 21.2727 15.655 21.2728 16.0325C21.2728 16.41 20.9667 16.7161 20.5892 16.7161H18.3546C17.9771 16.7161 17.671 16.41 17.671 16.0325V10.7285C17.671 10.351 17.9771 10.0449 18.3546 10.0449H20.5892ZM11.786 12.1067C11.7859 13.0546 11.1294 13.8116 10.2869 14.0717L11.6155 15.5808C11.8649 15.8642 11.8374 16.2961 11.554 16.5456C11.2707 16.7951 10.8387 16.7676 10.5893 16.4843L8.91826 14.5861V16.0325C8.91826 16.41 8.61221 16.7161 8.23467 16.7161C7.85713 16.7161 7.55108 16.41 7.55108 16.0325V10.7285C7.55108 10.351 7.85713 10.0449 8.23467 10.0449C8.23487 10.0449 8.23507 10.045 8.23527 10.045C8.23549 10.045 8.23572 10.0449 8.23594 10.0449H9.64552C10.7709 10.0449 11.786 10.9285 11.786 12.1067Z" fill="#104F54"/>
</g>
<defs>
<clipPath id="clip0_6543_75166">
<rect width="35" height="35" fill="white"/>
</clipPath>
</defs>
</svg>
