<svg width="26" height="25" viewBox="0 0 26 25" fill="none" xmlns="http://www.w3.org/2000/svg">
<path d="M13 0L0 11.2895L1.33077 12.8219L2.54785 11.7649V21.741C2.54785 23.4196 3.91351 24.7853 5.59218 24.7853H11.2749V14.8405H14.8266V24.7853H20.4079C22.0865 24.7853 23.4522 23.4197 23.4522 21.741V11.7649L24.6693 12.8219L26 11.2895L13 0ZM21.4226 21.741C21.4226 22.3005 20.9674 22.7557 20.4079 22.7557H16.8562V12.811H9.24534V22.7558H5.59213C5.03257 22.7558 4.57737 22.3006 4.57737 21.741V10.0024L13 2.68805L21.4226 10.0024V21.741Z" fill="#1BAF9A"/>
</svg>
