<svg width="22" height="22" viewBox="0 0 22 22" fill="none" xmlns="http://www.w3.org/2000/svg">
<path d="M10.5503 21.25C7.84365 21.25 5.48469 20.359 3.47344 18.5769C1.46219 16.7948 0.304375 14.5608 0 11.875H1.91344C2.22906 14.0338 3.20062 15.8234 4.82812 17.2441C6.45542 18.6647 8.36281 19.375 10.5503 19.375C12.9878 19.375 15.0555 18.526 16.7534 16.8281C18.4514 15.1302 19.3003 13.0625 19.3003 10.625C19.3003 8.1875 18.4514 6.11979 16.7534 4.42188C15.0555 2.72396 12.9878 1.875 10.5503 1.875C9.1849 1.875 7.90531 2.17833 6.71156 2.785C5.5176 3.39146 4.48948 4.22594 3.62719 5.28844H6.89656V7.16344H0.550313V0.817188H2.42531V3.77875C3.43969 2.58167 4.65448 1.6526 6.06969 0.991562C7.48469 0.33052 8.97823 0 10.5503 0C12.0247 0 13.4061 0.278855 14.6947 0.836563C15.983 1.39427 17.1064 2.15229 18.0647 3.11062C19.023 4.06896 19.781 5.1924 20.3388 6.48094C20.8965 7.76927 21.1753 9.15063 21.1753 10.625C21.1753 12.0994 20.8965 13.4807 20.3388 14.7691C19.781 16.0576 19.023 17.181 18.0647 18.1394C17.1064 19.0977 15.983 19.8557 14.6947 20.4134C13.4061 20.9711 12.0247 21.25 10.5503 21.25ZM14.3028 15.6587L9.64906 11.0047V4.375H11.5238V10.2453L15.62 14.3413L14.3028 15.6587Z" fill="#141414"/>
</svg>
