<svg width="24" height="24" viewBox="0 0 24 24" fill="none" xmlns="http://www.w3.org/2000/svg">
<path d="M18.001 0H6.00033C2.68815 0 0 2.68815 0 6.00033V18.001C0 21.3132 2.68815 24.0013 6.00033 24.0013H18.001C21.3132 24.0013 24.0013 21.3132 24.0013 18.001V6.00033C24.0013 2.68815 21.3132 0 18.001 0ZM12.0007 18.001C8.68847 18.001 6.00033 15.3128 6.00033 12.0007C6.00033 8.68847 8.68847 6.00033 12.0007 6.00033C15.3128 6.00033 18.001 8.68847 18.001 12.0007C18.001 15.3128 15.3128 18.001 12.0007 18.001ZM18.421 6.74437C17.761 6.74437 17.2209 6.20434 17.2209 5.5443C17.2209 4.88426 17.761 4.34424 18.421 4.34424C19.081 4.34424 19.6211 4.88426 19.6211 5.5443C19.6211 6.20434 19.081 6.74437 18.421 6.74437Z" fill="#141414"/>
<path d="M12.001 15.5C13.934 15.5 15.501 13.933 15.501 12C15.501 10.067 13.934 8.5 12.001 8.5C10.068 8.5 8.50098 10.067 8.50098 12C8.50098 13.933 10.068 15.5 12.001 15.5Z" fill="#141414"/>
</svg>
