<svg width="14" height="16" viewBox="0 0 14 16" fill="none" xmlns="http://www.w3.org/2000/svg">
<path d="M11.6808 2.01147C10.1843 1.74328 8.80612 0.925996 8.11778 0.462705C7.66807 0.160007 7.14506 0 6.60525 0C6.06544 0 5.5424 0.160007 5.09269 0.462705C4.40436 0.925996 3.02621 1.74328 1.52966 2.01147C0.64333 2.17031 0 2.93719 0 3.83492V7.5594C0 8.78979 0.344212 9.98919 1.02313 11.1243C1.55426 12.0124 2.29016 12.8611 3.21035 13.6469C4.75764 14.9683 6.28978 15.6573 6.35422 15.686L6.60519 15.7977L6.85616 15.686C6.92063 15.6573 8.45277 14.9683 10 13.6469C10.9202 12.8611 11.6561 12.0124 12.1872 11.1243C12.8662 9.98922 13.2104 8.78979 13.2104 7.5594V3.83495C13.2105 2.93719 12.5671 2.17034 11.6808 2.01147ZM11.9759 7.55943C11.9759 9.39373 11.0492 11.1193 9.22154 12.6883C8.15914 13.6003 7.08052 14.1947 6.60528 14.436C5.51298 13.8809 1.23465 11.4573 1.23465 7.55943V3.83495C1.23465 3.5358 1.45031 3.28002 1.74748 3.22677C3.46666 2.91867 5.01324 2.00447 5.7821 1.48695C6.02729 1.32188 6.31194 1.23462 6.60525 1.23462C6.89857 1.23462 7.18321 1.32188 7.4284 1.48692C8.19726 2.00444 9.74384 2.91864 11.463 3.22674C11.7602 3.27999 11.9759 3.53577 11.9759 3.83492V7.55943ZM6.60525 3.23881C4.30765 3.23881 2.43841 5.10806 2.43841 7.40566C2.43841 9.70325 4.30765 11.5725 6.60525 11.5725C8.90285 11.5725 10.7721 9.70325 10.7721 7.40566C10.7721 5.10806 8.90285 3.23881 6.60525 3.23881ZM6.60525 10.3379C4.98842 10.3379 3.67303 9.02248 3.67303 7.40566C3.67303 5.78883 4.98842 4.47343 6.60525 4.47343C8.22208 4.47343 9.53747 5.78883 9.53747 7.40566C9.53747 9.02248 8.22205 10.3379 6.60525 10.3379ZM7.22256 6.78835H8.45718V8.02297H7.22256V9.25759H5.98794V8.02297H4.75332V6.78835H5.98794V5.55372H7.22256V6.78835Z" fill="#6D6D6D"/>
</svg>
