<svg width="20" height="20" viewBox="0 0 20 20" fill="none" xmlns="http://www.w3.org/2000/svg">
<path d="M14.9737 10.0013C14.9736 12.7494 12.7464 14.977 9.99875 14.9772C7.25094 14.9772 5.02288 12.7495 5.02283 10.0013C5.02283 7.25307 7.25091 5.02543 9.99875 5.02543C12.7464 5.02565 14.9737 7.25321 14.9737 10.0013ZM16.5121 10.0013C16.5121 6.40369 13.5962 3.48722 9.99875 3.48699C6.40111 3.48699 3.48438 6.40355 3.48438 10.0013C3.48443 13.599 6.40115 16.5156 9.99875 16.5156C13.5962 16.5154 16.5121 13.5989 16.5121 10.0013Z" fill="black"/>
<path d="M9.41839 12.4922C9.62234 12.4922 9.81801 12.411 9.96225 12.2668L13.4097 8.81937C13.7098 8.51895 13.71 8.03192 13.4097 7.73165C13.1095 7.4314 12.6224 7.43164 12.322 7.73165L9.41839 10.6352L7.6646 8.88147C7.36429 8.58114 6.8773 8.58034 6.57686 8.88047C6.27645 9.18085 6.27648 9.66878 6.57686 9.96919L8.87452 12.2668C9.01873 12.411 9.21445 12.4921 9.41839 12.4922Z" fill="black"/>
<path d="M8.75504 19.5421C9.42706 20.1146 10.3957 20.1502 11.1048 19.6493L11.243 19.5421L11.252 19.5341L12.525 18.4164L14.7045 18.5846C15.6433 18.6572 16.4958 18.0376 16.7167 17.1223L17.1474 15.3385L19.0785 14.1827L19.0865 14.1776C19.8384 13.7152 20.1712 12.8053 19.9138 11.9762L19.8547 11.8119L19.1025 9.99202L19.8547 8.17214C20.2138 7.30188 19.8883 6.2996 19.0865 5.80639L19.0785 5.80138L17.1474 4.64655L16.7167 2.86172C16.4957 1.94633 15.6433 1.32682 14.7045 1.39941L12.502 1.56968L11.253 0.466932L11.243 0.457918C10.5261 -0.152596 9.47184 -0.152687 8.75504 0.457918L8.74502 0.466932L7.49603 1.56968L5.29352 1.39941C4.37174 1.3283 3.53445 1.92441 3.29534 2.81265V2.81165L2.68637 4.75272L0.923563 5.80038L0.913547 5.80639C0.111663 6.29961 -0.213869 7.30186 0.145324 8.17214L0.89652 9.99202L0.145324 11.8119C-0.213836 12.6822 0.111634 13.6844 0.913547 14.1776L0.922562 14.1837H0.923563L2.84763 15.3315L3.28132 17.1223C3.50226 18.0375 4.35482 18.657 5.29352 18.5846H5.29452L7.47199 18.4164L8.74702 19.5341L8.75504 19.5421ZM10.1893 18.4104C10.0524 18.4897 9.87682 18.4761 9.75262 18.3703L8.24422 17.0462C8.0885 16.9095 7.88389 16.842 7.67732 16.8579L5.17533 17.0512C4.9895 17.0656 4.82048 16.9429 4.7767 16.7617L4.26789 14.6554C4.21931 14.4542 4.09213 14.2806 3.91433 14.1746L1.71482 12.8646C1.55938 12.7659 1.49714 12.5695 1.56759 12.3988L2.43998 10.2855C2.51746 10.0976 2.51744 9.88641 2.43998 9.69855L1.56759 7.58521C1.4966 7.41321 1.56063 7.21532 1.71883 7.11747L3.72502 5.92558L3.8382 5.84245C3.94367 5.75005 4.02299 5.63036 4.06557 5.4949L4.76268 3.27238C4.76784 3.25592 4.77265 3.23906 4.7767 3.2223C4.82046 3.0411 4.98945 2.91846 5.17533 2.93284L7.70136 3.12815L7.77948 3.13015C7.95977 3.12587 8.13383 3.05827 8.27026 2.93785L9.75663 1.62777C9.8985 1.50933 10.1044 1.50969 10.2454 1.62977L11.7278 2.93785L11.7889 2.98692C11.9354 3.09197 12.1153 3.14219 12.2967 3.12815L14.8227 2.93284C15.0086 2.91846 15.1775 3.04115 15.2213 3.2223L15.7281 5.32062L15.7782 5.46485C15.8427 5.60315 15.9478 5.71979 16.0807 5.79938L18.2812 7.11847C18.439 7.21642 18.5034 7.41335 18.4324 7.58521L17.5601 9.69855C17.4826 9.88641 17.4826 10.0976 17.5601 10.2855L18.4324 12.3988C18.5036 12.5713 18.439 12.7699 18.2802 12.8676H18.2792L16.0807 14.1837C15.9036 14.2897 15.7766 14.4628 15.7281 14.6634L15.2213 16.7617C15.1775 16.9428 15.0085 17.0656 14.8227 17.0512L12.3217 16.8579C12.1152 16.8419 11.9106 16.9096 11.7548 17.0462L10.2454 18.3703L10.1893 18.4104Z" fill="black"/>
</svg>
