<svg width="34" height="36" viewBox="0 0 34 36" fill="none" xmlns="http://www.w3.org/2000/svg">
<path fill-rule="evenodd" clip-rule="evenodd" d="M26.4311 4.72757L27.9916 7.71866H18.2712V1.74219H27.9922L26.4311 4.72757ZM18.227 24.107L20.0283 22.1713L22.0402 24.3334L24.0521 22.1713L26.0641 24.3334L27.9053 22.3547L23.2516 13.2926C23.1801 13.1484 23.0757 13.031 22.9516 12.9482C22.5628 12.6887 22.066 12.8443 21.842 13.2955L21.2039 14.5767L19.3271 10.8041C19.2555 10.66 19.1512 10.5425 19.0271 10.4597C18.8948 10.3714 18.7564 10.3263 18.6226 10.3231C18.3633 10.3168 18.1212 10.4675 17.9734 10.7651L13.1953 20.3601L14.2152 22.1822L14.9329 20.9011C15.1849 20.4499 15.7439 20.2943 16.1813 20.5537C16.3222 20.6367 16.4386 20.7555 16.5188 20.8981L18.227 24.107Z" fill="#1BAF9A"/>
<path d="M18.2481 9.67045C18.6603 9.55485 19.0773 9.64991 19.4167 9.87631C19.6453 10.0287 19.831 10.2409 19.956 10.4924L21.2037 13.0003L21.2116 12.9843L21.2301 12.9483C21.6266 12.1972 22.563 11.8455 23.3413 12.3648C23.5663 12.515 23.75 12.7232 23.875 12.9701C23.8755 12.971 23.876 12.9719 23.8765 12.9729L34.9795 34.5934H35.2969C35.6852 34.5934 36 34.9082 36 35.2965C36 35.6849 35.6852 35.9997 35.2969 35.9997H0.703125C0.31481 35.9997 1.7142e-05 35.6849 0 35.2965C0 34.9082 0.314799 34.5934 0.703125 34.5934H33.3986L22.6256 13.6153C22.6241 13.6125 22.6227 13.6097 22.6213 13.6069C22.6055 13.575 22.5861 13.5536 22.5683 13.54L22.5608 13.5346C22.5525 13.5291 22.5478 13.5276 22.5465 13.5273C22.5477 13.5274 22.5476 13.5269 22.5445 13.5279C22.5404 13.5292 22.5047 13.5423 22.4712 13.6097L22.4708 13.6104L21.8329 14.8916C21.7139 15.1304 21.4701 15.2814 21.2033 15.2814C20.9365 15.2813 20.6927 15.1303 20.5739 14.8914L18.6971 11.1188L18.6968 11.1184C18.6787 11.0819 18.656 11.0592 18.6365 11.0462L18.6364 11.0461C18.6327 11.0437 18.6292 11.0417 18.626 11.0398C18.6194 11.0493 18.6113 11.0621 18.6027 11.0794L18.6023 11.0801L13.8934 20.5361C13.7203 20.8837 13.2982 21.0251 12.9505 20.852C12.6029 20.6789 12.4614 20.2568 12.6346 19.9092L17.3435 10.4532C17.5278 10.0825 17.8374 9.78564 18.2481 9.67045Z" fill="#104F54"/>
<path d="M9.9038 18.0715C10.3428 17.2855 11.336 16.9961 12.1228 17.4613H12.1228C12.123 17.4614 12.1232 17.4615 12.1234 17.4616C12.1238 17.4619 12.1244 17.4621 12.1248 17.4624H12.1248C12.3564 17.5992 12.5503 17.7912 12.6894 18.0208L12.7166 18.0674L12.717 18.0681L14.2152 20.745L14.3193 20.5593C14.7585 19.774 15.7512 19.4846 16.5378 19.9498H16.5379C16.5382 19.95 16.5384 19.9501 16.5387 19.9503C16.5391 19.9505 16.5394 19.9507 16.5398 19.9509H16.5397C16.7712 20.0877 16.9652 20.2794 17.1043 20.5089L17.1314 20.5555L17.1391 20.5696L24.7611 34.8873C24.9436 35.2301 24.8136 35.6559 24.4708 35.8384C24.128 36.0208 23.7023 35.8909 23.5198 35.5481L15.9034 21.241C15.8842 21.2082 15.857 21.1808 15.8243 21.1615C15.8236 21.1611 15.823 21.1607 15.8223 21.1604C15.7347 21.1084 15.6112 21.1301 15.5465 21.2458L15.5461 21.2467L14.8284 22.5278C14.704 22.7498 14.4693 22.8873 14.2148 22.8873C13.9603 22.8872 13.7257 22.7496 13.6014 22.5275L11.4903 18.7557C11.4711 18.7215 11.4432 18.693 11.4093 18.673C11.4087 18.6727 11.4081 18.6723 11.4074 18.6719C11.3197 18.6199 11.1962 18.6416 11.1316 18.7573L2.14306 35.4987C1.95937 35.8408 1.53309 35.9693 1.19096 35.7856C0.848845 35.6019 0.720409 35.1756 0.904076 34.8335L9.89824 18.0818L9.9038 18.0715ZM16.5142 27.496C16.857 27.3135 17.2828 27.4434 17.4653 27.7862L19.4768 31.5648C19.6593 31.9076 19.5293 32.3334 19.1866 32.5159C18.8438 32.6984 18.418 32.5684 18.2355 32.2256L16.224 28.447C16.0415 28.1042 16.1714 27.6784 16.5142 27.496ZM17.9193 10.3271V0.703125C17.9193 0.31481 18.2341 1.75415e-05 18.6224 0C19.0107 0 19.3255 0.314799 19.3255 0.703125V10.3271C19.3255 10.7154 19.0107 11.0302 18.6224 11.0302C18.2341 11.0302 17.9193 10.7154 17.9193 10.3271Z" fill="#104F54"/>
</svg>
