<svg width="25" height="27" viewBox="0 0 25 27" fill="none" xmlns="http://www.w3.org/2000/svg">
<path d="M20.602 10.3122C20.0845 10.3122 19.6645 9.89219 19.6645 9.37469C19.6645 5.5375 16.6763 2.25719 12.8606 1.90656C9.03609 1.55453 5.48719 4.2311 4.78969 8.00078C4.70625 8.44985 4.66406 8.91203 4.66406 9.37469C4.66406 9.89219 4.24406 10.3122 3.72656 10.3122C3.20906 10.3122 2.78906 9.89219 2.78906 9.37469C2.78906 8.79766 2.84156 8.22063 2.94563 7.65953C3.8175 2.94719 8.24531 -0.402498 13.0327 0.0390648C17.8031 0.477815 21.5395 4.57844 21.5395 9.37469C21.5395 9.89266 21.12 10.3122 20.602 10.3122Z" fill="black"/>
<path d="M20.6016 21.5614C20.0841 21.5614 19.6641 21.1414 19.6641 20.6239C19.6641 20.1064 20.0841 19.6864 20.6016 19.6864C21.5241 19.6864 22.0941 19.055 22.3195 18.4639C22.5441 17.8761 22.5394 17.0286 21.8517 16.4136C21.4659 16.0686 21.4322 15.4756 21.7781 15.0898C22.1227 14.704 22.7161 14.6708 23.1014 15.0162C24.2527 16.0456 24.6333 17.6619 24.0708 19.1328C23.5073 20.6079 22.1456 21.5614 20.6016 21.5614Z" fill="black"/>
<path d="M20.6016 12.4608C20.0841 12.4608 19.6641 12.0408 19.6641 11.5233V9.375C19.6641 8.8575 20.0841 8.4375 20.6016 8.4375C21.1191 8.4375 21.5391 8.8575 21.5391 9.375V11.5233C21.5391 12.0408 21.1195 12.4608 20.6016 12.4608Z" fill="black"/>
<path d="M22.4761 16.6534C22.2534 16.6534 22.0303 16.5747 21.8517 16.4148C20.4614 15.1713 19.6641 13.3886 19.6641 11.5234C19.6641 11.0059 20.0841 10.5859 20.6016 10.5859C21.1191 10.5859 21.5391 11.0059 21.5391 11.5234C21.5391 12.8556 22.1086 14.1292 23.1014 15.0175C23.4872 15.3625 23.5209 15.9555 23.175 16.3412C22.9903 16.548 22.7339 16.6534 22.4761 16.6534Z" fill="black"/>
<path d="M3.72656 12.4608C3.20906 12.4608 2.78906 12.0408 2.78906 11.5233V9.375C2.78906 8.8575 3.20906 8.4375 3.72656 8.4375C4.24406 8.4375 4.66406 8.8575 4.66406 9.375V11.5233C4.66406 12.0408 4.24453 12.4608 3.72656 12.4608Z" fill="black"/>
<path d="M1.85185 16.6539C1.59404 16.6539 1.33764 16.5484 1.15295 16.3412C0.807479 15.9555 0.84076 15.3625 1.22654 15.0175C2.21935 14.1292 2.78889 12.8561 2.78889 11.5234C2.78889 11.0059 3.20889 10.5859 3.72639 10.5859C4.24389 10.5859 4.66389 11.0059 4.66389 11.5234C4.66389 13.3886 3.86654 15.1712 2.47623 16.4148C2.29764 16.5752 2.07451 16.6539 1.85185 16.6539Z" fill="black"/>
<path d="M12.1641 26.25C9.11484 26.25 6.53906 23.6742 6.53906 20.625C6.53906 20.1075 6.95906 19.6875 7.47656 19.6875C7.99406 19.6875 8.41406 20.1075 8.41406 20.625C8.41406 22.6575 10.1311 24.375 12.1641 24.375C14.197 24.375 15.9141 22.6575 15.9141 20.625C15.9141 20.1075 16.3341 19.6875 16.8516 19.6875C17.3691 19.6875 17.7891 20.1075 17.7891 20.625C17.7891 23.6742 15.2133 26.25 12.1641 26.25Z" fill="black"/>
<path d="M3.72411 21.5607C2.18005 21.5607 0.819269 20.6096 0.257238 19.1377C-0.306199 17.663 0.073488 16.0449 1.22427 15.016C1.61052 14.671 2.20302 14.7038 2.54802 15.0901C2.89302 15.4763 2.85974 16.0683 2.47396 16.4138C1.78677 17.0283 1.78302 17.8787 2.00849 18.4693C2.23302 19.0576 2.80208 19.6866 3.72411 19.6866C4.24161 19.6866 4.66161 20.1066 4.66161 20.6241C4.66161 21.1416 4.24208 21.5607 3.72411 21.5607Z" fill="black"/>
<path d="M20.6016 21.5625H3.72656C3.20906 21.5625 2.78906 21.1425 2.78906 20.625C2.78906 20.1075 3.20906 19.6875 3.72656 19.6875H20.6016C21.1191 19.6875 21.5391 20.1075 21.5391 20.625C21.5391 21.1425 21.1195 21.5625 20.6016 21.5625Z" fill="black"/>
</svg>
