<svg width="16" height="16" viewBox="0 0 16 16" fill="none" xmlns="http://www.w3.org/2000/svg">
<path d="M8.56693 14.9185C5.46484 12.6338 3.36606 10.535 1.08131 7.433C-0.35932 5.47703 -0.360476 3.53022 1.07809 2.09169L2.67884 0.490936C3.41181 -0.241939 4.62696 -0.140189 5.22852 0.701936L6.46777 2.43687C6.94609 3.10647 6.87093 4.01481 6.28899 4.59675L5.27234 5.61337C6.19637 6.91731 9.08368 9.80425 10.3866 10.7275L11.4032 9.71084C11.9851 9.12903 12.8934 9.05384 13.5631 9.53209L15.2981 10.7714C16.1414 11.3737 16.2409 12.5892 15.5091 13.321L13.9083 14.9218C12.3653 16.4648 10.3762 16.2511 8.56693 14.9185ZM2.08768 6.69181C4.29149 9.68394 6.31593 11.7083 9.30815 13.9122C10.5676 14.8397 11.9145 15.1481 13.0246 14.0379L14.6253 12.4372C14.8118 12.2507 14.7864 11.9418 14.5717 11.7884L12.8367 10.5492C12.7546 10.4902 12.6542 10.4624 12.5535 10.4708C12.4528 10.4791 12.3583 10.523 12.2871 10.5947L10.9342 11.9475C10.8507 12.0311 10.7452 12.0892 10.63 12.1152C10.5148 12.1413 10.3946 12.1341 10.2833 12.0946C9.07006 11.6641 4.33624 6.93112 3.90527 5.71672C3.86578 5.60541 3.85864 5.48519 3.88467 5.36999C3.91069 5.25479 3.96883 5.14933 4.05234 5.06581L5.40527 3.71294C5.47692 3.64167 5.52085 3.54722 5.52919 3.44651C5.53753 3.3458 5.50973 3.24542 5.45077 3.16334L4.21149 1.4284C4.05846 1.21412 3.74974 1.18762 3.56268 1.37469L1.96187 2.97547C0.851462 4.08584 1.16046 5.43287 2.08768 6.69181Z" fill="#6A6A6A"/>
</svg>
