<svg width="22" height="22" viewBox="0 0 22 22" fill="none" xmlns="http://www.w3.org/2000/svg">
<mask id="mask0_8365_150983" style="mask-type:luminance" maskUnits="userSpaceOnUse" x="0" y="0" width="22" height="22">
<path d="M21.2002 21.2002V0.799805H0.799805V21.2002H21.2002Z" fill="white" stroke="white" stroke-width="1.6"/>
</mask>
<g mask="url(#mask0_8365_150983)">
<path d="M21.3554 11C21.3554 10.6778 21.0746 10.3697 20.641 10.0857C19.6314 9.4245 19.2628 8.04869 19.8065 6.97121C20.04 6.50856 20.092 6.12288 19.9309 5.8438C19.7697 5.56472 19.4097 5.41682 18.8922 5.38769C17.6873 5.31984 16.6802 4.31274 16.6123 3.10781C16.5832 2.59034 16.4353 2.23031 16.1562 2.06913C15.8771 1.908 15.4914 1.95999 15.0287 2.19348C13.9512 2.73721 12.5755 2.36854 11.9141 1.3589C11.6302 0.925437 11.3222 0.644594 11 0.644594C10.6777 0.644594 10.3697 0.925437 10.0858 1.3589C9.42448 2.36854 8.04871 2.73721 6.97123 2.19348C6.50854 1.95999 6.12282 1.908 5.84373 2.06913C5.56465 2.23031 5.41676 2.59034 5.38762 3.10781C5.31978 4.31274 4.31268 5.31984 3.10775 5.38769C2.59028 5.41682 2.23025 5.56472 2.06907 5.8438C1.90798 6.12288 1.95997 6.50856 2.19342 6.97121C2.73715 8.04869 2.36856 9.4245 1.35893 10.0857C0.925374 10.3697 0.644531 10.6778 0.644531 11C0.644531 11.3223 0.925374 11.6303 1.35888 11.9142C2.36852 12.5755 2.73715 13.9513 2.19342 15.0288C1.95997 15.4915 1.90798 15.8772 2.06907 16.1563C2.2302 16.4353 2.59028 16.5832 3.10766 16.6123C4.31268 16.6802 5.31982 17.6873 5.38766 18.8923C5.4168 19.4097 5.56465 19.7698 5.84373 19.9308C6.12282 20.092 6.50854 20.04 6.97123 19.8065C8.04867 19.2628 9.42444 19.6314 10.0857 20.6411C10.3697 21.0746 10.6777 21.3555 11 21.3555C11.3222 21.3555 11.6303 21.0746 11.9143 20.6411C12.5755 19.6314 13.9513 19.2628 15.0287 19.8065C15.4914 20.04 15.8771 20.092 16.1562 19.9308C16.4353 19.7698 16.5831 19.4097 16.6123 18.8923C16.6801 17.6873 17.6873 16.6802 18.8923 16.6123C19.4097 16.5832 19.7697 16.4353 19.9309 16.1563C20.092 15.8772 20.04 15.4915 19.8065 15.0288C19.2628 13.9513 19.6314 12.5755 20.6411 11.9142C21.0746 11.6303 21.3554 11.3223 21.3554 11Z" stroke="#141414" stroke-width="1.6" stroke-miterlimit="10"/>
</g>
<path d="M7.25233 13.8294L13.827 7.25466L14.7436 8.17121L8.16888 14.7459L7.25233 13.8294ZM13.4977 11.5496C12.4235 11.5496 11.5495 12.4235 11.5495 13.4977C11.5495 14.5719 12.4235 15.4459 13.4977 15.4459C14.5719 15.4459 15.4459 14.5719 15.4459 13.4977C15.4459 12.4235 14.5719 11.5496 13.4977 11.5496ZM13.4977 14.1495C13.1383 14.1495 12.8459 13.8571 12.8459 13.4977C12.8459 13.1383 13.1383 12.846 13.4977 12.846C13.8571 12.846 14.1494 13.1383 14.1494 13.4977C14.1494 13.8571 13.8571 14.1495 13.4977 14.1495ZM10.451 8.50288C10.451 7.42868 9.57708 6.55469 8.50288 6.55469C7.42868 6.55469 6.55469 7.42864 6.55469 8.50288C6.55469 9.57712 7.42864 10.451 8.50288 10.451C9.57712 10.451 10.451 9.57708 10.451 8.50288ZM7.85109 8.50288C7.85109 8.14352 8.14347 7.85109 8.50288 7.85109C8.86228 7.85109 9.15462 8.14347 9.15462 8.50288C9.15462 8.86228 8.86224 9.15462 8.50288 9.15462C8.14352 9.15462 7.85109 8.86224 7.85109 8.50288Z" fill="#141414"/>
</svg>
