<svg width="9" height="8" viewBox="0 0 9 8" fill="none" xmlns="http://www.w3.org/2000/svg">
<path d="M2.87624 0.0930252C2.84841 0.15456 2.82057 0.717156 2.81129 1.35008L2.78346 2.49285L1.39173 2.53681L0 2.58076V3.54772V4.51469L1.39173 4.55864L2.78346 4.60259L2.81129 5.85965L2.83913 7.1167L4.01746 7.09033L5.19579 7.06396L5.22363 5.8069L5.25146 4.55864H6.63391H8.01636L8.0442 3.69716C8.06275 3.23126 8.05348 2.77415 8.03492 2.69504C8.00708 2.56318 7.84936 2.53681 6.64319 2.51923L5.28857 2.49285L5.24218 1.26217L5.19579 0.0314913L4.05457 0.00511932C3.20098 -0.0124617 2.90408 0.0139103 2.87624 0.0930252Z" fill="#141414"/>
</svg>
