<svg width="193" height="179" viewBox="0 0 193 179" fill="none" xmlns="http://www.w3.org/2000/svg">
<rect width="193" height="179" fill="#F0EEE6"/>
<path d="M90.2656 111.275C90.3432 111.275 93.3121 104.683 96.8623 96.6484C100.412 88.5963 104.157 80.0688 105.204 77.6953C106.251 75.3228 107.163 73.214 107.241 72.9844L107.357 72.5977H104.758C102.857 72.5977 102.1 72.6679 101.944 72.8262C101.828 72.9503 101.479 73.6881 101.169 74.4434C100.839 75.2169 99.4416 78.5395 98.0254 81.8271C96.6092 85.1148 94.5147 90.0552 93.3701 92.8154C92.2256 95.5754 91.0421 98.3003 90.751 98.8809L90.2275 99.9355L89.8389 99.1445C89.4119 98.2649 87.6851 94.2205 83.0684 83.3213C81.3614 79.3133 79.6546 75.2701 79.2471 74.3555L78.5098 72.6855L73 72.5801L73.1943 72.9844C73.2958 73.223 76.9217 81.4294 81.2451 91.2334C90.3978 112.005 90.0722 111.276 90.2656 111.275ZM113.137 109.079L113.195 106.565L113.253 104.069H119.034L119.093 102.346C119.132 101.414 119.112 100.5 119.073 100.342C119.015 100.078 118.685 100.025 116.163 99.9902L113.331 99.9375L113.234 97.4756L113.137 95.0146L110.751 94.9619C108.966 94.9268 108.345 94.9795 108.287 95.1377C108.229 95.2608 108.171 96.3857 108.151 97.6514L108.093 99.9375L105.183 100.025L102.273 100.113V103.981L105.183 104.069L108.093 104.157L108.151 106.671L108.209 109.185L113.137 109.079Z" fill="url(#paint0_linear_13269_135156)"/>
<defs>
<linearGradient id="paint0_linear_13269_135156" x1="119" y1="107.805" x2="74.9312" y2="71.8965" gradientUnits="userSpaceOnUse">
<stop stop-color="#D8D5C1"/>
<stop offset="0.543269" stop-color="#E2E0D3"/>
<stop offset="1" stop-color="#D8D5C1"/>
</linearGradient>
</defs>
</svg>
