<svg width="26" height="26" viewBox="0 0 26 26" fill="none" xmlns="http://www.w3.org/2000/svg">
<path d="M13.0036 25.0574C7.00728 25.0574 2.12891 20.1792 2.12891 14.183C2.12891 8.18684 7.00734 3.30859 13.0036 3.30859C19 3.30859 23.8784 8.18684 23.8784 14.183C23.8784 20.1792 19 25.0574 13.0036 25.0574ZM13.0036 5.19055C8.04495 5.19055 4.0108 9.22458 4.0108 14.1831C4.0108 19.1415 8.04501 23.1756 13.0036 23.1756C17.9623 23.1756 21.9966 19.1416 21.9966 14.1831C21.9966 9.22451 17.9623 5.19055 13.0036 5.19055Z" fill="#1BAF9A" stroke="#1BAF9A" stroke-width="0.1"/>
<path d="M10.2221 17.9541C9.98422 17.9541 9.74616 17.8645 9.56292 17.6846C9.19213 17.3205 9.18673 16.7247 9.55082 16.3539L12.0586 13.8V9.31985C12.0586 8.8002 12.4799 8.37891 12.9996 8.37891C13.5192 8.37891 13.9405 8.8002 13.9405 9.31985V14.5695L10.8936 17.6725C10.7094 17.86 10.4658 17.9541 10.2221 17.9541Z" fill="#1BAF9A"/>
<path d="M2.58596 6.00894C2.3208 6.00894 2.05727 5.89747 1.87115 5.68043C1.53291 5.28592 1.57852 4.69187 1.97303 4.35363L5.68399 1.17198C6.0785 0.833673 6.67262 0.879278 7.01079 1.27391C7.34903 1.66842 7.30343 2.26247 6.90892 2.60071L3.19795 5.78236C3.02055 5.93442 2.80269 6.00894 2.58596 6.00894Z" fill="#1BAF9A" stroke="#1BAF9A" stroke-width="0.1"/>
<path d="M23.4171 6.00893C23.2003 6.00893 22.9826 5.93441 22.8051 5.78229L19.0941 2.60064C18.6996 2.2624 18.654 1.66835 18.9922 1.27384C19.3306 0.879268 19.9246 0.833727 20.319 1.1719L24.03 4.35356C24.4245 4.6918 24.4701 5.28585 24.1319 5.68035C23.9458 5.89746 23.6822 6.00893 23.4171 6.00893Z" fill="#1BAF9A" stroke="#1BAF9A" stroke-width="0.1"/>
</svg>
