<svg width="16" height="16" viewBox="0 0 16 16" fill="none" xmlns="http://www.w3.org/2000/svg">
<g clip-path="url(#clip0_11426_11455)">
<path d="M13.2936 4.93968C12.4928 2.12275 9.92208 0 6.78807 0C3.03655 0 0 3.03596 0 6.78807C0 8.97302 1.04215 10.9288 2.69557 12.174C3.78842 12.997 4.31968 13.9804 4.31968 15.1806V15.7977H10.4906V13.5761H13.5761V9.87355H15.7977L13.2936 4.93968ZM12.3419 8.63936V12.3419H9.25645V14.5635H5.51675C5.35406 13.2392 4.65683 12.106 3.43803 11.1881C2.03747 10.1333 1.23419 8.52961 1.23419 6.78807C1.23419 3.72566 3.72566 1.23419 6.78807 1.23419C9.26728 1.23419 11.46 2.91714 12.1203 5.32684L12.1366 5.38645L13.7772 8.63936H12.3419Z" fill="#6D6D6D"/>
<path d="M9.80849 5.82891L8.70456 5.27698L7.02387 8.63843H8.87516L8.08747 10.2138L9.19139 10.7657L10.8721 7.40424H9.0208L9.80849 5.82891ZM5.31821 4.93585L6.10591 3.36053L5.00198 2.80859L3.32129 6.17004H5.17258L4.38489 7.74537L5.48881 8.2973L7.16951 4.93585H5.31821Z" fill="#6D6D6D"/>
</g>
<defs>
<clipPath id="clip0_11426_11455">
<rect width="15.7977" height="15.7977" fill="white"/>
</clipPath>
</defs>
</svg>
