<svg width="26" height="31" viewBox="0 0 26 31" fill="none" xmlns="http://www.w3.org/2000/svg">
<path d="M4.85131 21.9021C4.72246 21.7978 4.5647 21.7402 4.39904 21.7402C4.23602 21.7402 4.07562 21.7978 3.94677 21.9021C3.81793 22.0063 3.72589 22.1545 3.68646 22.3191L3.43403 23.3753C3.32097 23.8444 3.08694 24.2752 2.75827 24.6179C2.42959 24.9609 2.01677 25.2051 1.56714 25.323L0.554809 25.5863C0.397043 25.6276 0.255056 25.7235 0.155137 25.8581C0.0552186 25.9924 0 26.1571 0 26.3298C0 26.5026 0.0552186 26.6673 0.155137 26.8016C0.255056 26.9362 0.397043 27.0321 0.554809 27.0734L1.56714 27.3367C2.01677 27.4545 2.42959 27.6988 2.75827 28.0418C3.08694 28.3845 3.32097 28.8152 3.43403 29.2843L3.68646 30.3407C3.72589 30.5052 3.81793 30.6533 3.94677 30.7576C4.07562 30.862 4.23338 30.9195 4.39904 30.9195C4.5647 30.9195 4.72246 30.862 4.85131 30.7576C4.98015 30.6533 5.07219 30.5052 5.11161 30.3407L5.36405 29.2843C5.59544 28.3271 6.31063 27.578 7.23093 27.3367L8.24327 27.0734C8.40103 27.0321 8.54303 26.9362 8.64293 26.8016C8.74286 26.6673 8.79808 26.5026 8.79808 26.3298C8.79808 26.1571 8.74286 25.9924 8.64293 25.8581C8.54303 25.7235 8.40103 25.6276 8.24327 25.5863L7.23093 25.323C6.31327 25.0817 5.59544 24.3355 5.36405 23.3753L5.11161 22.3191C5.07219 22.1545 4.98015 22.0063 4.85131 21.9021Z" fill="#00AB96"/>
<path d="M4.85131 0.161857C4.72246 0.0576103 4.5647 0 4.39904 0C4.23602 0 4.07562 0.0576103 3.94677 0.161857C3.81793 0.266103 3.72589 0.414244 3.68646 0.578844L3.43403 1.63503C3.32097 2.10414 3.08694 2.53484 2.75827 2.87776C2.42959 3.22068 2.01677 3.46484 1.56714 3.5828L0.554809 3.84617C0.397043 3.8873 0.255056 3.98332 0.155137 4.11775C0.0552186 4.25218 0 4.41678 0 4.58961C0 4.76245 0.0552186 4.92704 0.155137 5.06147C0.255056 5.1959 0.397043 5.29192 0.554809 5.33306L1.56714 5.59643C2.01677 5.71438 2.42959 5.95855 2.75827 6.30147C3.08694 6.64438 3.32097 7.07508 3.43403 7.54419L3.68646 8.60038C3.72589 8.76497 3.81793 8.91312 3.94677 9.01735C4.07562 9.12161 4.23338 9.17922 4.39904 9.17922C4.5647 9.17922 4.72246 9.12161 4.85131 9.01735C4.98015 8.91312 5.07219 8.76497 5.11161 8.60038L5.36405 7.54419C5.59544 6.58677 6.31063 5.83784 7.23093 5.59643L8.24327 5.33306C8.40103 5.29192 8.54303 5.1959 8.64293 5.06147C8.74286 4.92704 8.79808 4.76245 8.79808 4.58961C8.79808 4.41678 8.74286 4.25218 8.64293 4.11775C8.54303 3.98332 8.40103 3.8873 8.24327 3.84617L7.23093 3.5828C6.31327 3.34138 5.59544 2.59521 5.36405 1.63503L5.11161 0.578844C5.07219 0.414244 4.98015 0.266103 4.85131 0.161857Z" fill="#00AB96"/>
<path fill-rule="evenodd" clip-rule="evenodd" d="M13.2537 2.89893C13.5135 2.89893 13.7604 2.98777 13.9691 3.14773C14.1735 3.30767 14.3226 3.53869 14.395 3.79636L15.681 8.49243C15.9577 9.50538 16.4773 10.425 17.1927 11.1714C17.9038 11.9134 18.7895 12.4554 19.7604 12.7486L24.2614 14.0904C24.5085 14.1659 24.7257 14.3214 24.8833 14.5347C25.0366 14.7479 25.1218 15.01 25.1218 15.281C25.1218 15.552 25.0366 15.8097 24.8833 16.0274C24.7298 16.2451 24.5085 16.3962 24.2614 16.4717L19.7604 17.8134C18.7895 18.1022 17.9081 18.6442 17.1927 19.3906C16.4815 20.1326 15.962 21.0567 15.681 22.0697L14.395 26.7656C14.3226 27.0234 14.1735 27.25 13.9691 27.4145C13.7647 27.5744 13.5135 27.6633 13.2537 27.6633C12.994 27.6633 12.747 27.5744 12.5383 27.4145C12.3339 27.2543 12.1849 27.0234 12.1125 26.7656L10.8265 22.0697C10.5497 21.0567 10.0302 20.137 9.31476 19.3906C8.60362 18.6487 7.71788 18.1067 6.74699 17.8134L2.24593 16.4717C1.99894 16.3962 1.78177 16.2407 1.62421 16.0274C1.47091 15.8142 1.38574 15.552 1.38574 15.281C1.38574 15.01 1.47091 14.7523 1.62421 14.5347C1.77751 14.3214 1.99894 14.1659 2.24593 14.0904L6.74699 12.7486C7.71788 12.4599 8.59936 11.9178 9.31476 11.1714C10.0259 10.4295 10.5454 9.50538 10.8265 8.49243L12.1125 3.79636C12.1849 3.53869 12.3339 3.31211 12.5383 3.14773C12.7427 2.98777 12.994 2.89893 13.2537 2.89893Z" fill="#00AB96"/>
</svg>
