<svg width="20" height="20" viewBox="0 0 20 20" fill="none" xmlns="http://www.w3.org/2000/svg">
<path d="M6.7 5.675L9 3.375V12.975C9 13.575 9.4 13.975 10 13.975C10.6 13.975 11 13.575 11 12.975V3.375L13.3 5.675C13.7 6.075 14.3 6.075 14.7 5.675C15.1 5.275 15.1 4.675 14.7 4.275L10.7 0.275C10.6 0.175 10.5 0.075 10.4 0.075C10.2 -0.025 9.9 -0.025 9.6 0.075C9.5 0.075 9.4 0.175 9.3 0.275L5.3 4.275C4.9 4.675 4.9 5.275 5.3 5.675C5.7 6.075 6.3 6.075 6.7 5.675ZM19 9.975C18.4 9.975 18 10.375 18 10.975V16.975C18 17.575 17.6 17.975 17 17.975H3C2.4 17.975 2 17.575 2 16.975V10.975C2 10.375 1.6 9.975 1 9.975C0.4 9.975 0 10.375 0 10.975V16.975C0 18.675 1.3 19.975 3 19.975H17C18.7 19.975 20 18.675 20 16.975V10.975C20 10.375 19.6 9.975 19 9.975Z" fill="black"/>
</svg>
