<svg width="22" height="22" viewBox="0 0 22 22" fill="none" xmlns="http://www.w3.org/2000/svg">
<path d="M16.11 14.7015C17.3531 13.1517 18.1004 11.1871 18.1004 9.05021C18.1004 4.06001 14.0404 0 9.05022 0C4.06001 1.10852e-05 0 4.06001 0 9.05021C0 14.0404 4.06001 18.1004 9.05022 18.1004C11.1871 18.1004 13.1517 17.3531 14.7015 16.11L20.2999 21.7084C20.6887 22.0972 21.3195 22.0972 21.7084 21.7084C22.0972 21.3195 22.0972 20.6888 21.7084 20.2999L16.11 14.7015ZM9.05022 1.99232C12.942 1.99232 16.1081 5.15841 16.1081 9.05021C16.1081 12.942 12.942 16.1081 9.05022 16.1081C5.15841 16.1081 1.99232 12.942 1.99232 9.05021C1.99232 5.15841 5.15841 1.99233 9.05022 1.99232Z" fill="#141414"/>
</svg>
