<svg width="20" height="20" viewBox="0 0 20 20" fill="none" xmlns="http://www.w3.org/2000/svg">
<path fill-rule="evenodd" clip-rule="evenodd" d="M9.6 19.2C14.9021 19.2 19.2 14.9021 19.2 9.6C19.2 4.29792 14.9021 0 9.6 0C4.29792 0 0 4.29792 0 9.6C0 14.9021 4.29792 19.2 9.6 19.2ZM14.1187 8.35872C14.2936 8.17766 14.3904 7.93516 14.3882 7.68346C14.386 7.43175 14.285 7.19097 14.107 7.01297C13.929 6.83498 13.6883 6.73402 13.4365 6.73183C13.1848 6.72965 12.9423 6.82641 12.7613 7.00128L8.64 11.1226L6.43872 8.92128C6.25766 8.74641 6.01516 8.64965 5.76346 8.65183C5.51175 8.65402 5.27097 8.75498 5.09297 8.93297C4.91498 9.11097 4.81402 9.35175 4.81183 9.60346C4.80965 9.85516 4.90641 10.0977 5.08128 10.2787L7.96128 13.1587C8.14131 13.3387 8.38544 13.4398 8.64 13.4398C8.89456 13.4398 9.13869 13.3387 9.31872 13.1587L14.1187 8.35872Z" fill="white"/>
</svg>
