<svg width="16" height="15" viewBox="0 0 16 15" fill="none" xmlns="http://www.w3.org/2000/svg">
<path d="M13.9464 8.63972H6.10892C5.82225 7.23308 4.57556 6.17133 3.08548 6.17133H1.23419V2.46875H0V14.8107H1.23419V12.3423H14.5635V14.8107H15.7977V10.491C15.7977 9.47021 14.9672 8.63972 13.9464 8.63972ZM3.08548 7.40553C3.88996 7.40553 4.57587 7.92148 4.83063 8.63972H1.23419V7.40553H3.08548ZM1.23419 11.1081V9.87391H13.9464C14.2867 9.87391 14.5635 10.1507 14.5635 10.491V11.1081H1.23419Z" fill="#6D6D6D"/>
<path d="M9.25638 4.93678H8.26856L9.87348 3.41211V2.46839H6.788V3.70258H7.77581L6.1709 5.22724V6.17097H9.25638V4.93678ZM14.1932 2.46839H13.2053L14.8103 0.943726V0H11.7248V1.23419H12.7126L11.1077 2.75886V3.70258H14.1932V2.46839Z" fill="#6D6D6D"/>
</svg>
