<svg width="24" height="23" viewBox="0 0 24 23" fill="none" xmlns="http://www.w3.org/2000/svg">
<path d="M22.9461 10.2409C22.7078 9.74894 22.3106 9.3517 21.8186 9.11343L3.48858 0.243625C2.28109 -0.341382 0.828038 0.163292 0.243033 1.37079C0.0956357 1.67506 0.01337 2.00675 0.00149829 2.34463C-0.0103735 2.68251 0.04841 3.01916 0.174088 3.33302L3.36147 11.2999L0.174088 19.2676C-0.322376 20.5175 0.288394 21.9332 1.53826 22.4296C1.82089 22.5419 2.12204 22.6002 2.42614 22.6015C2.79406 22.6015 3.15724 22.5185 3.48858 22.3586L21.8185 13.4864C23.0261 12.9015 23.531 11.4485 22.9461 10.2409ZM2.78325 20.8985C2.38068 21.0934 1.89637 20.9251 1.70149 20.5225C1.65238 20.4211 1.62499 20.3105 1.62106 20.1979C1.61713 20.0853 1.63675 19.9731 1.67867 19.8685L4.78182 12.1097H20.9464L2.78325 20.8985ZM4.78187 10.4901L1.67871 2.73131C1.6157 2.58041 1.60109 2.41365 1.63692 2.25409C1.67274 2.09453 1.75723 1.95002 1.87871 1.84054C1.99624 1.72601 2.14672 1.65121 2.30897 1.62666C2.47123 1.60212 2.6371 1.62906 2.78325 1.7037L20.9464 10.4901H4.78187Z" fill="#141414"/>
</svg>
