<svg width="18" height="16" viewBox="0 0 18 16" fill="none" xmlns="http://www.w3.org/2000/svg">
<path d="M9.58254 4.42773H0.878906C0.645806 4.42773 0.422253 4.33514 0.257426 4.17031C0.0925988 4.00548 0 3.78193 0 3.54883C0 3.31573 0.0925988 3.09217 0.257426 2.92735C0.422253 2.76252 0.645806 2.66992 0.878906 2.66992H9.58359C9.81669 2.66992 10.0402 2.76252 10.2051 2.92735C10.3699 3.09217 10.4625 3.31573 10.4625 3.54883C10.4625 3.78193 10.3699 4.00548 10.2051 4.17031C10.0402 4.33514 9.81669 4.42773 9.58359 4.42773H9.58254ZM17.1211 4.42773H14.921C14.6879 4.42773 14.4644 4.33514 14.2995 4.17031C14.1347 4.00548 14.0421 3.78193 14.0421 3.54883C14.0421 3.31573 14.1347 3.09217 14.2995 2.92735C14.4644 2.76252 14.6879 2.66992 14.921 2.66992H17.1211C17.3542 2.66992 17.5777 2.76252 17.7426 2.92735C17.9074 3.09217 18 3.31573 18 3.54883C18 3.78193 17.9074 4.00548 17.7426 4.17031C17.5777 4.33514 17.3542 4.42773 17.1211 4.42773ZM17.1211 12.5446H8.41746C8.18436 12.5446 7.96081 12.452 7.79598 12.2872C7.63115 12.1224 7.53855 11.8988 7.53855 11.6657C7.53855 11.4326 7.63115 11.209 7.79598 11.0442C7.96081 10.8794 8.18436 10.7868 8.41746 10.7868H17.1211C17.3542 10.7868 17.5777 10.8794 17.7426 11.0442C17.9074 11.209 18 11.4326 18 11.6657C18 11.8988 17.9074 12.1224 17.7426 12.2872C17.5777 12.452 17.3542 12.5446 17.1211 12.5446ZM3.07898 12.5446H0.878906C0.645806 12.5446 0.422253 12.452 0.257426 12.2872C0.0925988 12.1224 0 11.8988 0 11.6657C0 11.4326 0.0925988 11.209 0.257426 11.0442C0.422253 10.8794 0.645806 10.7868 0.878906 10.7868H3.07898C3.31208 10.7868 3.53564 10.8794 3.70046 11.0442C3.86529 11.209 3.95789 11.4326 3.95789 11.6657C3.95789 11.8988 3.86529 12.1224 3.70046 12.2872C3.53564 12.452 3.31208 12.5446 3.07898 12.5446Z" fill="#141414"/>
<path d="M5.7518 15.1485C5.04999 15.1485 4.36393 14.9405 3.78036 14.5506C3.1968 14.1608 2.74195 13.6067 2.47333 12.9583C2.20471 12.3099 2.13439 11.5965 2.27126 10.9081C2.40814 10.2198 2.74605 9.58752 3.24228 9.09124C3.73851 8.59496 4.37076 8.25698 5.05907 8.12004C5.74739 7.9831 6.46086 8.05335 7.10925 8.3219C7.75764 8.59046 8.31183 9.04525 8.70174 9.62878C9.09165 10.2123 9.29977 10.8984 9.29977 11.6002C9.29911 12.541 8.92511 13.4431 8.25989 14.1084C7.59467 14.7736 6.69261 15.1477 5.7518 15.1485ZM5.7518 9.81C5.39764 9.80993 5.05141 9.91489 4.75691 10.1116C4.46241 10.3083 4.23286 10.588 4.0973 10.9151C3.96174 11.2423 3.92625 11.6024 3.99533 11.9497C4.0644 12.2971 4.23494 12.6162 4.48537 12.8666C4.7358 13.117 5.05486 13.2876 5.40222 13.3566C5.74958 13.4257 6.10962 13.3902 6.43681 13.2547C6.76399 13.1191 7.04363 12.8895 7.24035 12.595C7.43706 12.3005 7.54202 11.9543 7.54195 11.6002C7.54121 11.1256 7.35237 10.6707 7.01681 10.3351C6.68125 9.99959 6.22635 9.81075 5.7518 9.81ZM12.255 7.09664C11.5532 7.09664 10.8672 6.88854 10.2837 6.49864C9.70014 6.10875 9.24535 5.55458 8.97678 4.90621C8.70822 4.25783 8.63795 3.54439 8.77486 2.85608C8.91177 2.16777 9.24972 1.53552 9.74596 1.03928C10.2422 0.543039 10.8745 0.205094 11.5628 0.0681816C12.2511 -0.0687312 12.9645 0.00153747 13.6129 0.270101C14.2613 0.538665 14.8154 0.993463 15.2053 1.57698C15.5952 2.1605 15.8033 2.84653 15.8033 3.54832C15.8027 4.48919 15.4286 5.39135 14.7633 6.05664C14.098 6.72194 13.1959 7.09599 12.255 7.09664ZM12.255 1.75817C11.9009 1.75817 11.5547 1.86319 11.2602 2.05995C10.9658 2.2567 10.7363 2.53636 10.6008 2.86356C10.4652 3.19075 10.4298 3.55078 10.4989 3.89811C10.568 4.24545 10.7386 4.56449 10.989 4.81488C11.2395 5.06527 11.5586 5.23577 11.9059 5.30482C12.2533 5.37387 12.6133 5.33836 12.9404 5.20279C13.2676 5.06721 13.5472 4.83766 13.7439 4.54317C13.9406 4.24868 14.0456 3.90247 14.0455 3.54832C14.0448 3.07371 13.8559 2.61876 13.5202 2.28319C13.1846 1.94762 12.7296 1.75882 12.255 1.75817Z" fill="#141414"/>
</svg>
