<svg width="26" height="26" viewBox="0 0 26 26" fill="none" xmlns="http://www.w3.org/2000/svg">
<g clip-path="url(#clip0_10298_50732)">
<path d="M13 25L11.4896 23.6136C9.22122 21.5124 7.34534 19.7068 5.86197 18.1969C4.37861 16.6867 3.20313 15.3426 2.33555 14.1648C1.46797 12.9871 0.861877 11.9128 0.517263 10.9417C0.172421 9.97085 0 8.98568 0 7.98619C0 6.00328 0.654789 4.34312 1.96437 3.00573C3.27418 1.66858 4.90009 1 6.84211 1C8.03674 1 9.16568 1.28527 10.2289 1.85581C11.2922 2.42635 12.2159 3.24455 13 4.31041C13.7841 3.24455 14.7078 2.42635 15.7711 1.85581C16.8343 1.28527 17.9633 1 19.1579 1C21.0999 1 22.7258 1.66858 24.0356 3.00573C25.3452 4.34312 26 6.00328 26 7.98619C26 8.98568 25.8276 9.97085 25.4827 10.9417C25.1381 11.9128 24.532 12.9871 23.6644 14.1648C22.7969 15.3426 21.6236 16.6867 20.1445 18.1969C18.6657 19.7068 16.7877 21.5124 14.5104 23.6136L13 25ZM13 22.1681C15.1895 20.1566 16.9912 18.4324 18.4053 16.9956C19.8193 15.559 20.9368 14.3109 21.7579 13.2513C22.5789 12.1918 23.1491 11.2508 23.4684 10.4286C23.7877 9.60652 23.9474 8.79239 23.9474 7.98619C23.9474 6.58895 23.4912 5.42459 22.5789 4.49309C21.6667 3.5616 20.5263 3.09586 19.1579 3.09586C18.0773 3.09586 17.0786 3.40884 16.1617 4.0348C15.2451 4.661 14.5193 5.53206 13.9842 6.64798H12.0158C11.4718 5.52297 10.7437 4.6497 9.83142 4.02816C8.91914 3.40663 7.9227 3.09586 6.84211 3.09586C5.48235 3.09586 4.34417 3.5616 3.42755 4.49309C2.51094 5.42459 2.05263 6.58895 2.05263 7.98619C2.05263 8.79239 2.21228 9.60652 2.53158 10.4286C2.85088 11.2508 3.42105 12.1918 4.24211 13.2513C5.06316 14.3109 6.1807 15.5568 7.59474 16.9889C9.00877 18.4211 10.8105 20.1475 13 22.1681Z" fill="#141414"/>
</g>
<defs>
<clipPath id="clip0_10298_50732">
<rect width="26" height="26" fill="white"/>
</clipPath>
</defs>
</svg>
