<svg width="24" height="20" viewBox="0 0 24 20" fill="none" xmlns="http://www.w3.org/2000/svg">
<path d="M23.4516 3.1225C24 5.35 24 10 24 10C24 10 24 14.65 23.4516 16.8775C23.1468 18.1088 22.2552 19.0775 21.126 19.405C19.0752 20 12 20 12 20C12 20 4.9284 20 2.874 19.405C1.74 19.0725 0.8496 18.105 0.5484 16.8775C3.57628e-08 14.65 0 10 0 10C0 10 3.57628e-08 5.35 0.5484 3.1225C0.8532 1.89125 1.7448 0.9225 2.874 0.595C4.9284 -2.23517e-07 12 0 12 0C12 0 19.0752 -2.23517e-07 21.126 0.595C22.26 0.9275 23.1504 1.895 23.4516 3.1225ZM9.6 14.375L16.8 10L9.6 5.625V14.375Z" fill="#141414"/>
</svg>
